<svg width="526" height="516" viewBox="0 0 526 516" fill="none" xmlns="http://www.w3.org/2000/svg">
<g clip-path="url(#clip0_877_1263)">
<path d="M0 0H526V516H0V0Z" fill="#E3DDD2"/>
<g clip-path="url(#clip1_877_1263)">
<rect width="280.435" height="205.435" transform="translate(41 62)" fill="#EDEAE5"/>
<path d="M68.9341 89.413V83.1738H71.4341V98.3912H68.9341V91.8043H62.4124V98.3912H59.9124V83.1738H62.4124V89.413H68.9341ZM76.1063 85.4565C75.8165 85.7463 75.4686 85.8912 75.0628 85.8912C74.657 85.8912 74.302 85.7463 73.9976 85.4565C73.7078 85.1521 73.5628 84.797 73.5628 84.3912C73.5628 83.9854 73.7078 83.6376 73.9976 83.3478C74.2875 83.0434 74.6425 82.8912 75.0628 82.8912C75.4831 82.8912 75.8382 83.0434 76.1281 83.3478C76.4179 83.6376 76.5628 83.9854 76.5628 84.3912C76.5628 84.797 76.4107 85.1521 76.1063 85.4565ZM76.2368 98.3912H73.8889V87.5217H76.2368V98.3912ZM87.1802 89.1304V87.5217H89.4845V97.8912C89.4845 99.5434 88.9411 100.812 87.8541 101.696C86.7816 102.58 85.4628 103.022 83.8976 103.022C81.3903 103.022 79.6729 102.145 78.7454 100.391L80.7672 99.2173C81.3324 100.333 82.3903 100.891 83.9411 100.891C84.9556 100.891 85.7454 100.623 86.3106 100.087C86.8903 99.5651 87.1802 98.8333 87.1802 97.8912V96.5651C86.2961 97.826 85.0353 98.4565 83.3976 98.4565C81.8758 98.4565 80.5787 97.913 79.5063 96.826C78.4483 95.7246 77.9193 94.3985 77.9193 92.8478C77.9193 91.2825 78.4483 89.9637 79.5063 88.8912C80.5643 87.7898 81.8614 87.2391 83.3976 87.2391C85.0353 87.2391 86.2961 87.8695 87.1802 89.1304ZM81.2454 95.2825C81.9121 95.9347 82.7382 96.2608 83.7237 96.2608C84.7092 96.2608 85.528 95.9347 86.1802 95.2825C86.8469 94.6304 87.1802 93.8188 87.1802 92.8478C87.1802 91.8767 86.8469 91.0651 86.1802 90.413C85.528 89.7608 84.7092 89.4347 83.7237 89.4347C82.7382 89.4347 81.9121 89.7608 81.2454 90.413C80.5932 91.0651 80.2672 91.8767 80.2672 92.8478C80.2672 93.8188 80.5932 94.6304 81.2454 95.2825ZM97.5037 87.2391C98.7646 87.2391 99.7719 87.6449 100.525 88.4565C101.294 89.2536 101.678 90.3405 101.678 91.7173V98.3912H99.3298V91.9565C99.3298 91.1449 99.1124 90.5217 98.6776 90.0869C98.2429 89.6521 97.6487 89.4347 96.895 89.4347C96.04 89.4347 95.3661 89.7028 94.8733 90.2391C94.3805 90.7608 94.1342 91.5362 94.1342 92.5651V98.3912H91.7863V83.1738H94.1342V88.913C94.8588 87.797 95.982 87.2391 97.5037 87.2391ZM113.314 95.413L116.097 87.5217H118.597L114.423 98.7391C113.38 101.551 111.611 102.884 109.119 102.739V100.543C109.843 100.587 110.43 100.435 110.88 100.087C111.329 99.7391 111.706 99.1811 112.01 98.413L112.119 98.1956L107.51 87.5217H110.075L113.314 95.413ZM121.848 85.4565C121.558 85.7463 121.21 85.8912 120.804 85.8912C120.398 85.8912 120.043 85.7463 119.739 85.4565C119.449 85.1521 119.304 84.797 119.304 84.3912C119.304 83.9854 119.449 83.6376 119.739 83.3478C120.029 83.0434 120.384 82.8912 120.804 82.8912C121.224 82.8912 121.58 83.0434 121.869 83.3478C122.159 83.6376 122.304 83.9854 122.304 84.3912C122.304 84.797 122.152 85.1521 121.848 85.4565ZM121.978 98.3912H119.63V87.5217H121.978V98.3912ZM134.769 93.9565H126.117C126.291 94.768 126.682 95.3985 127.291 95.8478C127.914 96.297 128.682 96.5217 129.595 96.5217C130.827 96.5217 131.762 96.0724 132.4 95.1738L134.335 96.3043C133.277 97.884 131.69 98.6738 129.574 98.6738C127.82 98.6738 126.393 98.1376 125.291 97.0651C124.204 95.9782 123.661 94.6086 123.661 92.9565C123.661 91.3478 124.197 89.9927 125.269 88.8912C126.327 87.7898 127.704 87.2391 129.4 87.2391C130.98 87.2391 132.284 87.797 133.313 88.913C134.342 90.0289 134.856 91.384 134.856 92.9782C134.856 93.268 134.827 93.5941 134.769 93.9565ZM126.095 92.0434H132.487C132.327 91.1883 131.965 90.5289 131.4 90.0651C130.849 89.6014 130.175 89.3695 129.378 89.3695C128.508 89.3695 127.784 89.6086 127.204 90.0869C126.624 90.5651 126.255 91.2173 126.095 92.0434ZM138.835 98.3912H136.487V82.5217H138.835V98.3912ZM149.735 89.0651V83.1738H152.083V98.3912H149.735V96.826C148.851 98.0579 147.583 98.6738 145.931 98.6738C144.438 98.6738 143.163 98.1231 142.105 97.0217C141.047 95.9202 140.518 94.5651 140.518 92.9565C140.518 91.3478 141.047 89.9927 142.105 88.8912C143.163 87.7898 144.438 87.2391 145.931 87.2391C147.583 87.2391 148.851 87.8478 149.735 89.0651ZM143.844 95.4565C144.496 96.1086 145.315 96.4347 146.3 96.4347C147.286 96.4347 148.105 96.1086 148.757 95.4565C149.409 94.7898 149.735 93.9565 149.735 92.9565C149.735 91.9565 149.409 91.1304 148.757 90.4782C148.105 89.8115 147.286 89.4782 146.3 89.4782C145.315 89.4782 144.496 89.8115 143.844 90.4782C143.192 91.1304 142.866 91.9565 142.866 92.9565C142.866 93.942 143.192 94.7753 143.844 95.4565Z" fill="#142E2A"/>
<path d="M67.7798 110.913H69.6515V121.565H67.9015V113.972L64.6602 119.328H64.4471L61.2058 113.956V121.565H59.4558V110.913H61.3428L64.5537 116.239L67.7798 110.913ZM78.5841 118.461H72.5276C72.6493 119.029 72.9232 119.47 73.3493 119.785C73.7855 120.099 74.3232 120.256 74.9623 120.256C75.8247 120.256 76.479 119.942 76.9254 119.313L78.2797 120.104C77.5392 121.21 76.4283 121.763 74.9471 121.763C73.7196 121.763 72.7203 121.388 71.9493 120.637C71.1884 119.876 70.808 118.917 70.808 117.761C70.808 116.635 71.1834 115.686 71.9341 114.915C72.6747 114.144 73.6384 113.759 74.8254 113.759C75.9312 113.759 76.8442 114.149 77.5645 114.93C78.2848 115.712 78.645 116.66 78.645 117.776C78.645 117.979 78.6247 118.207 78.5841 118.461ZM72.5123 117.122H76.9863C76.8747 116.523 76.621 116.062 76.2254 115.737C75.8399 115.412 75.3681 115.25 74.8102 115.25C74.2015 115.25 73.6942 115.417 73.2884 115.752C72.8826 116.087 72.6239 116.543 72.5123 117.122ZM85.6378 115.037V110.913H87.2813V121.565H85.6378V120.47C85.019 121.332 84.1313 121.763 82.9748 121.763C81.9298 121.763 81.0371 121.378 80.2965 120.606C79.5559 119.835 79.1856 118.887 79.1856 117.761C79.1856 116.635 79.5559 115.686 80.2965 114.915C81.0371 114.144 81.9298 113.759 82.9748 113.759C84.1313 113.759 85.019 114.185 85.6378 115.037ZM81.5139 119.511C81.9704 119.967 82.5436 120.196 83.2335 120.196C83.9233 120.196 84.4965 119.967 84.953 119.511C85.4095 119.044 85.6378 118.461 85.6378 117.761C85.6378 117.061 85.4095 116.483 84.953 116.026C84.4965 115.559 83.9233 115.326 83.2335 115.326C82.5436 115.326 81.9704 115.559 81.5139 116.026C81.0574 116.483 80.8291 117.061 80.8291 117.761C80.8291 118.451 81.0574 119.034 81.5139 119.511ZM90.3143 112.511C90.1114 112.714 89.8679 112.815 89.5838 112.815C89.2998 112.815 89.0512 112.714 88.8382 112.511C88.6353 112.298 88.5338 112.049 88.5338 111.765C88.5338 111.481 88.6353 111.238 88.8382 111.035C89.0411 110.822 89.2896 110.715 89.5838 110.715C89.8781 110.715 90.1266 110.822 90.3295 111.035C90.5324 111.238 90.6338 111.481 90.6338 111.765C90.6338 112.049 90.5273 112.298 90.3143 112.511ZM90.4056 121.565H88.7621V113.956H90.4056V121.565ZM97.0073 118.035V113.956H98.6508V121.565H97.0073V120.591C96.5001 121.372 95.7138 121.763 94.6486 121.763C93.766 121.763 93.0559 121.484 92.5182 120.926C91.9906 120.358 91.7269 119.592 91.7269 118.628V113.956H93.3703V118.461C93.3703 119.029 93.5225 119.465 93.8269 119.77C94.1312 120.074 94.5472 120.226 95.0747 120.226C95.6732 120.226 96.145 120.043 96.4899 119.678C96.8348 119.303 97.0073 118.755 97.0073 118.035ZM108.446 113.759C109.309 113.759 110.004 114.038 110.531 114.596C111.059 115.154 111.323 115.904 111.323 116.848V121.565H109.679V116.954C109.679 116.437 109.547 116.031 109.283 115.737C109.02 115.443 108.66 115.296 108.203 115.296C107.686 115.296 107.28 115.468 106.986 115.813C106.691 116.148 106.544 116.645 106.544 117.304V121.565H104.901V116.954C104.901 116.427 104.774 116.021 104.52 115.737C104.277 115.443 103.927 115.296 103.47 115.296C102.963 115.296 102.552 115.468 102.238 115.813C101.933 116.158 101.781 116.655 101.781 117.304V121.565H100.138V113.956H101.781V114.87C102.268 114.129 102.994 113.759 103.957 113.759C104.931 113.759 105.652 114.159 106.118 114.961C106.615 114.159 107.391 113.759 108.446 113.759ZM117.66 113.956V115.235C118.076 114.291 118.857 113.82 120.003 113.82V115.6C119.384 115.559 118.837 115.712 118.36 116.056C117.893 116.391 117.66 116.949 117.66 117.73V121.565H116.016V113.956H117.66ZM122.335 112.511C122.132 112.714 121.889 112.815 121.604 112.815C121.32 112.815 121.072 112.714 120.859 112.511C120.656 112.298 120.554 112.049 120.554 111.765C120.554 111.481 120.656 111.238 120.859 111.035C121.062 110.822 121.31 110.715 121.604 110.715C121.899 110.715 122.147 110.822 122.35 111.035C122.553 111.238 122.654 111.481 122.654 111.765C122.654 112.049 122.548 112.298 122.335 112.511ZM122.426 121.565H120.783V113.956H122.426V121.565ZM125.331 116.056C125.331 116.29 125.453 116.483 125.696 116.635C125.94 116.777 126.295 116.914 126.762 117.046C127.117 117.127 127.426 117.213 127.69 117.304C127.954 117.396 128.233 117.533 128.527 117.715C128.821 117.888 129.044 118.121 129.196 118.415C129.359 118.699 129.435 119.034 129.425 119.42C129.425 120.15 129.141 120.723 128.572 121.139C128.004 121.555 127.299 121.763 126.457 121.763C125.707 121.763 125.062 121.606 124.525 121.291C123.987 120.977 123.596 120.541 123.353 119.983L124.768 119.161C125.022 119.891 125.585 120.256 126.457 120.256C127.32 120.256 127.751 119.972 127.751 119.404C127.751 118.988 127.269 118.664 126.305 118.43C125.94 118.339 125.63 118.248 125.377 118.156C125.133 118.065 124.859 117.933 124.555 117.761C124.261 117.588 124.033 117.36 123.87 117.076C123.718 116.792 123.647 116.462 123.657 116.087C123.657 115.387 123.921 114.824 124.449 114.398C124.986 113.972 125.651 113.759 126.442 113.759C127.071 113.759 127.629 113.901 128.116 114.185C128.613 114.459 128.994 114.844 129.257 115.341L127.872 116.117C127.619 115.539 127.142 115.25 126.442 115.25C126.117 115.25 125.849 115.321 125.636 115.463C125.433 115.605 125.331 115.803 125.331 116.056ZM133.602 117.685L137.072 121.565H135.108L131.989 118.05V121.565H130.345V110.913H131.989V117.32L134.941 113.956H136.95L133.602 117.685Z" fill="#5B6D6A"/>
<path d="M286.416 97.2037L295.001 88.6185L295.001 96.12C295.001 96.7195 295.493 97.2114 296.092 97.2114C296.692 97.2114 297.176 96.7272 297.176 96.1277L297.176 85.9976C297.176 85.3981 296.692 84.9139 296.092 84.9139L285.962 84.8985C285.363 84.8985 284.879 85.3827 284.879 85.9822C284.879 86.5817 285.363 87.066 285.962 87.066L293.464 87.0813L284.879 95.6665C284.456 96.0893 284.456 96.781 284.879 97.2037C285.301 97.6264 285.993 97.6264 286.416 97.2037Z" fill="#142E2A"/>
<path d="M73.2124 157.683L76.1341 159.357C74.795 162.339 72.5327 163.83 69.3471 163.83C67.1153 163.83 65.279 163.1 63.8385 161.639C62.3979 160.158 61.4848 158.119 61.0993 155.522H58.9385V153.361H60.9167V152.783C60.9167 152.357 60.9269 152.083 60.9471 151.961H58.9385V149.8H61.1602C61.566 147.284 62.479 145.316 63.8993 143.896C65.3399 142.455 67.1558 141.735 69.3471 141.735C72.4718 141.735 74.7037 143.175 76.0428 146.057L73.1515 147.73C72.3602 146.006 71.0921 145.144 69.3471 145.144C68.1298 145.144 67.1254 145.549 66.3341 146.361C65.5428 147.152 64.995 148.299 64.6906 149.8H71.4167V151.961H64.4471C64.4269 152.083 64.4167 152.357 64.4167 152.783V153.361H71.4167V155.522H64.6298C64.9138 157.104 65.4616 158.322 66.2732 159.174C67.0848 160.006 68.1095 160.422 69.3471 160.422C71.1327 160.422 72.4211 159.509 73.2124 157.683ZM76.7788 144.109L82.3788 142.13H85.4223V163.435H81.9223V145.874L77.631 147.091L76.7788 144.109ZM90.1027 159.783H93.7549L91.6244 167.696H88.8853L90.1027 159.783ZM109.866 163.435H95.8355V160.696L103.262 153.117C105.067 151.312 105.97 149.749 105.97 148.43C105.97 147.416 105.666 146.615 105.057 146.026C104.449 145.438 103.657 145.144 102.683 145.144C100.898 145.144 99.5789 146.026 98.7268 147.791L95.7746 146.057C96.4239 144.657 97.3572 143.591 98.5746 142.861C99.792 142.11 101.151 141.735 102.653 141.735C104.54 141.735 106.143 142.323 107.462 143.5C108.801 144.697 109.47 146.3 109.47 148.309C109.47 150.459 108.263 152.772 105.849 155.248L101.04 160.057H109.866V163.435ZM126.004 160.817C124.543 162.826 122.494 163.83 119.856 163.83C117.239 163.83 115.179 162.826 113.678 160.817C112.217 158.809 111.486 156.13 111.486 152.783C111.486 149.435 112.217 146.757 113.678 144.748C115.179 142.739 117.239 141.735 119.856 141.735C122.494 141.735 124.543 142.739 126.004 144.748C127.485 146.736 128.226 149.415 128.226 152.783C128.226 156.151 127.485 158.829 126.004 160.817ZM119.856 160.422C121.439 160.422 122.646 159.762 123.478 158.444C124.31 157.125 124.726 155.238 124.726 152.783C124.726 150.328 124.31 148.441 123.478 147.122C122.646 145.803 121.439 145.144 119.856 145.144C118.294 145.144 117.086 145.803 116.234 147.122C115.402 148.441 114.986 150.328 114.986 152.783C114.986 155.238 115.402 157.125 116.234 158.444C117.086 159.762 118.294 160.422 119.856 160.422ZM144.739 160.817C143.278 162.826 141.229 163.83 138.592 163.83C135.974 163.83 133.915 162.826 132.413 160.817C130.952 158.809 130.222 156.13 130.222 152.783C130.222 149.435 130.952 146.757 132.413 144.748C133.915 142.739 135.974 141.735 138.592 141.735C141.229 141.735 143.278 142.739 144.739 144.748C146.221 146.736 146.961 149.415 146.961 152.783C146.961 156.151 146.221 158.829 144.739 160.817ZM138.592 160.422C140.174 160.422 141.381 159.762 142.213 158.444C143.045 157.125 143.461 155.238 143.461 152.783C143.461 150.328 143.045 148.441 142.213 147.122C141.381 145.803 140.174 145.144 138.592 145.144C137.029 145.144 135.822 145.803 134.97 147.122C134.138 148.441 133.722 150.328 133.722 152.783C133.722 155.238 134.138 157.125 134.97 158.444C135.822 159.762 137.029 160.422 138.592 160.422ZM149.649 159.783H153.301L151.171 167.696H148.432L149.649 159.783ZM169.252 160.817C167.791 162.826 165.742 163.83 163.104 163.83C160.487 163.83 158.427 162.826 156.926 160.817C155.465 158.809 154.735 156.13 154.735 152.783C154.735 149.435 155.465 146.757 156.926 144.748C158.427 142.739 160.487 141.735 163.104 141.735C165.742 141.735 167.791 142.739 169.252 144.748C170.733 146.736 171.474 149.415 171.474 152.783C171.474 156.151 170.733 158.829 169.252 160.817ZM163.104 160.422C164.687 160.422 165.894 159.762 166.726 158.444C167.558 157.125 167.974 155.238 167.974 152.783C167.974 150.328 167.558 148.441 166.726 147.122C165.894 145.803 164.687 145.144 163.104 145.144C161.542 145.144 160.335 145.803 159.482 147.122C158.65 148.441 158.235 150.328 158.235 152.783C158.235 155.238 158.65 157.125 159.482 158.444C160.335 159.762 161.542 160.422 163.104 160.422ZM187.987 160.817C186.527 162.826 184.477 163.83 181.84 163.83C179.222 163.83 177.163 162.826 175.661 160.817C174.201 158.809 173.47 156.13 173.47 152.783C173.47 149.435 174.201 146.757 175.661 144.748C177.163 142.739 179.222 141.735 181.84 141.735C184.477 141.735 186.527 142.739 187.987 144.748C189.469 146.736 190.209 149.415 190.209 152.783C190.209 156.151 189.469 158.829 187.987 160.817ZM181.84 160.422C183.422 160.422 184.63 159.762 185.461 158.444C186.293 157.125 186.709 155.238 186.709 152.783C186.709 150.328 186.293 148.441 185.461 147.122C184.63 145.803 183.422 145.144 181.84 145.144C180.277 145.144 179.07 145.803 178.218 147.122C177.386 148.441 176.97 150.328 176.97 152.783C176.97 155.238 177.386 157.125 178.218 158.444C179.07 159.762 180.277 160.422 181.84 160.422ZM206.723 160.817C205.262 162.826 203.213 163.83 200.575 163.83C197.958 163.83 195.898 162.826 194.397 160.817C192.936 158.809 192.206 156.13 192.206 152.783C192.206 149.435 192.936 146.757 194.397 144.748C195.898 142.739 197.958 141.735 200.575 141.735C203.213 141.735 205.262 142.739 206.723 144.748C208.204 146.736 208.945 149.415 208.945 152.783C208.945 156.151 208.204 158.829 206.723 160.817ZM200.575 160.422C202.158 160.422 203.365 159.762 204.197 158.444C205.029 157.125 205.445 155.238 205.445 152.783C205.445 150.328 205.029 148.441 204.197 147.122C203.365 145.803 202.158 145.144 200.575 145.144C199.013 145.144 197.806 145.803 196.953 147.122C196.122 148.441 195.706 150.328 195.706 152.783C195.706 155.238 196.122 157.125 196.953 158.444C197.806 159.762 199.013 160.422 200.575 160.422Z" fill="#142E2A"/>
<g clip-path="url(#clip2_877_1263)">
<path d="M66.8493 201.573L75.4345 192.988L75.4345 200.489C75.4345 201.089 75.9264 201.581 76.5259 201.581C77.1254 201.581 77.6096 201.096 77.6096 200.497L77.6096 190.367C77.6096 189.767 77.1254 189.283 76.5259 189.283L66.3958 189.268C65.7963 189.268 65.3121 189.752 65.3121 190.352C65.3121 190.951 65.7963 191.435 66.3958 191.435L73.8973 191.451L65.3121 200.036C64.8894 200.459 64.8894 201.15 65.3121 201.573C65.7348 201.996 66.4266 201.996 66.8493 201.573Z" fill="#54B342"/>
</g>
<path d="M90.9331 188.254C91.5461 188.867 91.8526 189.611 91.8526 190.485C91.8526 191.359 91.5461 192.102 90.9331 192.715C90.3331 193.315 89.5766 193.615 88.6635 193.615C87.7374 193.615 86.9744 193.315 86.3744 192.715C85.7613 192.102 85.4548 191.359 85.4548 190.485C85.4548 189.624 85.7613 188.887 86.3744 188.274C86.9874 187.661 87.7505 187.354 88.6635 187.354C89.5766 187.354 90.3331 187.654 90.9331 188.254ZM88.644 191.893C89.0613 191.893 89.4005 191.763 89.6613 191.502C89.9222 191.228 90.0526 190.889 90.0526 190.485C90.0526 190.08 89.9222 189.741 89.6613 189.467C89.4005 189.193 89.0613 189.056 88.644 189.056C88.2396 189.056 87.907 189.193 87.6461 189.467C87.3853 189.741 87.2548 190.08 87.2548 190.485C87.2548 190.876 87.3853 191.209 87.6461 191.482C87.92 191.756 88.2526 191.893 88.644 191.893ZM87.6657 199.915L86.6092 199.289L95.6287 189.252L96.6853 189.859L87.6657 199.915ZM94.9244 201.539C93.9983 201.539 93.2353 201.239 92.6353 200.639C92.0222 200.026 91.7157 199.282 91.7157 198.409C91.7157 197.548 92.0222 196.811 92.6353 196.198C93.2483 195.585 94.0113 195.278 94.9244 195.278C95.8244 195.278 96.5809 195.585 97.194 196.198C97.807 196.811 98.1135 197.548 98.1135 198.409C98.1135 199.282 97.807 200.026 97.194 200.639C96.594 201.239 95.8374 201.539 94.9244 201.539ZM94.9048 199.817C95.3222 199.817 95.6613 199.687 95.9222 199.426C96.1831 199.152 96.3135 198.813 96.3135 198.409C96.3135 198.004 96.1831 197.665 95.9222 197.391C95.6613 197.117 95.3222 196.98 94.9048 196.98C94.5005 196.98 94.1679 197.117 93.907 197.391C93.6461 197.665 93.5157 198.004 93.5157 198.409C93.5157 198.8 93.6461 199.132 93.907 199.406C94.1809 199.68 94.5135 199.817 94.9048 199.817ZM98.9519 189.761V187.609H107.658V189.565L102.845 201.304H100.478L105.213 189.761H98.9519ZM107.377 198.604C107.781 198.604 108.127 198.748 108.414 199.035C108.701 199.322 108.844 199.667 108.844 200.072C108.844 200.476 108.701 200.822 108.414 201.109C108.127 201.396 107.781 201.539 107.377 201.539C106.973 201.539 106.627 201.396 106.34 201.109C106.053 200.822 105.91 200.476 105.91 200.072C105.91 199.667 106.047 199.322 106.321 199.035C106.607 198.748 106.96 198.604 107.377 198.604ZM117.701 194.182C119.044 194.926 119.716 196.035 119.716 197.509C119.716 198.748 119.279 199.732 118.405 200.463C117.544 201.193 116.383 201.559 114.923 201.559C113.462 201.559 112.294 201.2 111.42 200.482C110.546 199.765 110.11 198.774 110.11 197.509C110.11 196.804 110.286 196.165 110.638 195.591C110.99 195.004 111.486 194.535 112.125 194.182C111.094 193.504 110.579 192.539 110.579 191.287C110.579 190.035 110.996 189.069 111.831 188.391C112.679 187.7 113.71 187.354 114.923 187.354C116.123 187.354 117.146 187.7 117.994 188.391C118.842 189.082 119.266 190.048 119.266 191.287C119.266 192.526 118.744 193.491 117.701 194.182ZM114.923 189.487C114.296 189.487 113.788 189.656 113.396 189.996C113.018 190.322 112.829 190.785 112.829 191.385C112.829 191.959 113.025 192.422 113.416 192.774C113.807 193.113 114.31 193.282 114.923 193.282C115.523 193.282 116.018 193.113 116.41 192.774C116.814 192.422 117.016 191.959 117.016 191.385C117.016 190.785 116.82 190.322 116.429 189.996C116.038 189.656 115.536 189.487 114.923 189.487ZM114.923 199.426C115.692 199.426 116.305 199.237 116.762 198.859C117.231 198.48 117.466 197.959 117.466 197.293C117.466 196.628 117.231 196.106 116.762 195.728C116.305 195.35 115.692 195.161 114.923 195.161C114.14 195.161 113.514 195.35 113.044 195.728C112.588 196.106 112.36 196.628 112.36 197.293C112.36 197.959 112.588 198.48 113.044 198.859C113.514 199.237 114.14 199.426 114.923 199.426ZM133.746 187.609H136.309L131.535 195.865V201.304H129.285V195.865L124.512 187.609H127.075L130.42 193.674L133.746 187.609ZM136.271 187.609H146.25V189.761H142.395V201.304H140.145V189.761H136.271V187.609ZM147.479 187.609H152.859C154.737 187.609 156.296 188.267 157.535 189.585C158.787 190.902 159.413 192.526 159.413 194.456C159.413 196.374 158.787 197.998 157.535 199.328C156.296 200.646 154.737 201.304 152.859 201.304H147.479V187.609ZM149.729 199.152H152.859C154.15 199.152 155.2 198.709 156.009 197.822C156.831 196.935 157.242 195.813 157.242 194.456C157.242 193.1 156.831 191.978 156.009 191.091C155.2 190.204 154.15 189.761 152.859 189.761H149.729V199.152Z" fill="#54B342"/>
<g opacity="0.5">
<path d="M25.1692 269.674C33.9118 264.834 58.643 254.765 87.6276 253.206C123.858 251.257 128.229 236.275 144.533 235.398C160.837 234.521 167.335 248.919 180.016 248.236C192.697 247.554 205.889 228.821 225.816 227.749C245.743 226.677 239.835 220.441 248.598 215.873C257.36 211.305 251.512 205.885 269.627 204.911C287.742 203.936 282.012 200.148 296.505 199.368C310.997 198.589 310.642 193.692 325.135 192.913" stroke="#54B342" stroke-width="1.08696"/>
<path opacity="0.5" d="M87.6276 253.206C58.643 254.765 33.9118 264.834 25.1692 269.674L329.507 276.99L327.321 234.951L325.135 192.913C310.642 193.692 310.997 198.589 296.505 199.368C282.012 200.148 287.742 203.936 269.627 204.911C251.512 205.885 257.36 211.305 248.598 215.873C239.835 220.441 245.743 226.677 225.816 227.749C205.889 228.821 192.697 247.554 180.016 248.236C167.335 248.919 160.837 234.521 144.533 235.398C128.229 236.275 123.858 251.257 87.6276 253.206Z" fill="url(#paint0_linear_877_1263)"/>
</g>
</g>
<g clip-path="url(#clip3_877_1263)">
<rect width="280.435" height="205.435" transform="translate(335.564 61.9999)" fill="#EDEAE5"/>
<path d="M365.89 98.3911H363.151L359.933 92.8476H356.977V98.3911H354.477V83.1737H360.564C361.926 83.1737 363.078 83.652 364.02 84.6085C364.977 85.536 365.455 86.6882 365.455 88.065C365.455 89.036 365.172 89.9273 364.607 90.7389C364.057 91.536 363.332 92.1158 362.433 92.4781L365.89 98.3911ZM360.564 85.5215H356.977V90.6085H360.564C361.23 90.6085 361.796 90.3621 362.259 89.8694C362.723 89.3766 362.955 88.7752 362.955 88.065C362.955 87.3549 362.723 86.7534 362.259 86.2607C361.796 85.7679 361.23 85.5215 360.564 85.5215ZM377.149 93.9563H368.497C368.671 94.7679 369.062 95.3984 369.671 95.8476C370.294 96.2969 371.062 96.5215 371.975 96.5215C373.207 96.5215 374.142 96.0723 374.779 95.1737L376.714 96.3042C375.656 97.8839 374.069 98.6737 371.953 98.6737C370.2 98.6737 368.772 98.1375 367.671 97.065C366.584 95.9781 366.04 94.6085 366.04 92.9563C366.04 91.3476 366.576 89.9926 367.649 88.8911C368.707 87.7897 370.084 87.2389 371.779 87.2389C373.359 87.2389 374.663 87.7969 375.692 88.9129C376.721 90.0288 377.236 91.3839 377.236 92.9781C377.236 93.2679 377.207 93.594 377.149 93.9563ZM368.475 92.0433H374.866C374.707 91.1882 374.345 90.5288 373.779 90.065C373.229 89.6013 372.555 89.3694 371.758 89.3694C370.888 89.3694 370.163 89.6085 369.584 90.0868C369.004 90.565 368.634 91.2172 368.475 92.0433ZM384.592 87.5215V89.7824H381.897V94.9998C381.897 95.4491 381.998 95.7752 382.201 95.9781C382.404 96.1665 382.701 96.2752 383.092 96.3042C383.498 96.3186 383.998 96.3114 384.592 96.2824V98.3911C382.795 98.6085 381.506 98.4563 380.723 97.9346C379.94 97.3984 379.549 96.4201 379.549 94.9998V89.7824H377.549V87.5215H379.549V85.1737L381.897 84.4781V87.5215H384.592ZM388.505 85.4563C388.215 85.7462 387.867 85.8911 387.461 85.8911C387.055 85.8911 386.7 85.7462 386.396 85.4563C386.106 85.152 385.961 84.7969 385.961 84.3911C385.961 83.9853 386.106 83.6375 386.396 83.3476C386.686 83.0433 387.041 82.8911 387.461 82.8911C387.881 82.8911 388.236 83.0433 388.526 83.3476C388.816 83.6375 388.961 83.9853 388.961 84.3911C388.961 84.7969 388.809 85.152 388.505 85.4563ZM388.635 98.3911H386.287V87.5215H388.635V98.3911ZM393.274 87.5215V89.3476C393.868 87.9998 394.984 87.3259 396.622 87.3259V89.8694C395.738 89.8114 394.955 90.0288 394.274 90.5215C393.607 90.9998 393.274 91.7969 393.274 92.9129V98.3911H390.926V87.5215H393.274ZM407.912 93.9563H399.26C399.434 94.7679 399.825 95.3984 400.434 95.8476C401.057 96.2969 401.825 96.5215 402.738 96.5215C403.97 96.5215 404.905 96.0723 405.543 95.1737L407.477 96.3042C406.42 97.8839 404.833 98.6737 402.717 98.6737C400.963 98.6737 399.535 98.1375 398.434 97.065C397.347 95.9781 396.804 94.6085 396.804 92.9563C396.804 91.3476 397.34 89.9926 398.412 88.8911C399.47 87.7897 400.847 87.2389 402.543 87.2389C404.122 87.2389 405.427 87.7969 406.456 88.9129C407.485 90.0288 407.999 91.3839 407.999 92.9781C407.999 93.2679 407.97 93.594 407.912 93.9563ZM399.238 92.0433H405.63C405.47 91.1882 405.108 90.5288 404.543 90.065C403.992 89.6013 403.318 89.3694 402.521 89.3694C401.651 89.3694 400.927 89.6085 400.347 90.0868C399.767 90.565 399.398 91.2172 399.238 92.0433ZM421.5 87.2389C422.732 87.2389 423.725 87.6375 424.478 88.4346C425.232 89.2317 425.609 90.3042 425.609 91.652V98.3911H423.261V91.8042C423.261 91.065 423.072 90.4853 422.696 90.065C422.319 89.6447 421.804 89.4346 421.152 89.4346C420.413 89.4346 419.833 89.681 419.413 90.1737C418.993 90.652 418.783 91.3621 418.783 92.3042V98.3911H416.435V91.8042C416.435 91.0505 416.254 90.4708 415.891 90.065C415.543 89.6447 415.043 89.4346 414.391 89.4346C413.667 89.4346 413.08 89.681 412.63 90.1737C412.196 90.6665 411.978 91.3766 411.978 92.3042V98.3911H409.63V87.5215H411.978V88.8259C412.674 87.7679 413.71 87.2389 415.087 87.2389C416.478 87.2389 417.507 87.8114 418.174 88.9563C418.884 87.8114 419.993 87.2389 421.5 87.2389ZM438.187 93.9563H429.534C429.708 94.7679 430.1 95.3984 430.708 95.8476C431.331 96.2969 432.1 96.5215 433.013 96.5215C434.245 96.5215 435.179 96.0723 435.817 95.1737L437.752 96.3042C436.694 97.8839 435.107 98.6737 432.991 98.6737C431.237 98.6737 429.81 98.1375 428.708 97.065C427.621 95.9781 427.078 94.6085 427.078 92.9563C427.078 91.3476 427.614 89.9926 428.687 88.8911C429.745 87.7897 431.121 87.2389 432.817 87.2389C434.397 87.2389 435.701 87.7969 436.73 88.9129C437.759 90.0288 438.274 91.3839 438.274 92.9781C438.274 93.2679 438.245 93.594 438.187 93.9563ZM429.513 92.0433H435.904C435.745 91.1882 435.382 90.5288 434.817 90.065C434.266 89.6013 433.592 89.3694 432.795 89.3694C431.926 89.3694 431.201 89.6085 430.621 90.0868C430.042 90.565 429.672 91.2172 429.513 92.0433ZM445.622 87.2389C446.883 87.2389 447.89 87.6447 448.644 88.4563C449.412 89.2534 449.796 90.3404 449.796 91.7172V98.3911H447.448V91.9563C447.448 91.1447 447.231 90.5215 446.796 90.0868C446.361 89.652 445.767 89.4346 445.013 89.4346C444.158 89.4346 443.484 89.7027 442.992 90.2389C442.499 90.7607 442.252 91.536 442.252 92.565V98.3911H439.905V87.5215H442.252V88.9129C442.977 87.7969 444.1 87.2389 445.622 87.2389ZM457.954 87.5215V89.7824H455.259V94.9998C455.259 95.4491 455.36 95.7752 455.563 95.9781C455.766 96.1665 456.063 96.2752 456.454 96.3042C456.86 96.3186 457.36 96.3114 457.954 96.2824V98.3911C456.157 98.6085 454.867 98.4563 454.085 97.9346C453.302 97.3984 452.911 96.4201 452.911 94.9998V89.7824H450.911V87.5215H452.911V85.1737L455.259 84.4781V87.5215H457.954Z" fill="#142E2A"/>
<path d="M355.77 110.913V119.891H360.107V121.565H354.02V110.913H355.77ZM367.064 120.606C366.293 121.377 365.344 121.763 364.218 121.763C363.092 121.763 362.144 121.377 361.373 120.606C360.591 119.825 360.201 118.877 360.201 117.761C360.201 116.645 360.591 115.696 361.373 114.915C362.144 114.144 363.092 113.759 364.218 113.759C365.344 113.759 366.293 114.144 367.064 114.915C367.845 115.696 368.236 116.645 368.236 117.761C368.236 118.877 367.845 119.825 367.064 120.606ZM361.844 117.761C361.844 118.451 362.073 119.024 362.529 119.48C362.986 119.937 363.549 120.165 364.218 120.165C364.888 120.165 365.451 119.937 365.907 119.48C366.364 119.024 366.592 118.451 366.592 117.761C366.592 117.071 366.364 116.498 365.907 116.041C365.451 115.585 364.888 115.356 364.218 115.356C363.549 115.356 362.986 115.585 362.529 116.041C362.073 116.498 361.844 117.071 361.844 117.761ZM376.264 119.206L377.755 113.956H379.49L377.101 121.565H375.488L373.905 116.437L372.307 121.565H370.694L368.305 113.956H370.04L371.516 119.206L373.114 113.956H374.681L376.264 119.206ZM385.278 113.956V115.235C385.694 114.291 386.475 113.819 387.622 113.819V115.6C387.003 115.559 386.455 115.711 385.978 116.056C385.512 116.391 385.278 116.949 385.278 117.73V121.565H383.635V113.956H385.278ZM389.953 112.511C389.751 112.714 389.507 112.815 389.223 112.815C388.939 112.815 388.69 112.714 388.477 112.511C388.274 112.298 388.173 112.049 388.173 111.765C388.173 111.481 388.274 111.238 388.477 111.035C388.68 110.822 388.929 110.715 389.223 110.715C389.517 110.715 389.766 110.822 389.969 111.035C390.172 111.238 390.273 111.481 390.273 111.765C390.273 112.049 390.167 112.298 389.953 112.511ZM390.045 121.565H388.401V113.956H390.045V121.565ZM392.95 116.056C392.95 116.29 393.071 116.482 393.315 116.635C393.558 116.777 393.913 116.914 394.38 117.045C394.735 117.127 395.045 117.213 395.308 117.304C395.572 117.395 395.851 117.532 396.145 117.715C396.44 117.888 396.663 118.121 396.815 118.415C396.977 118.699 397.053 119.034 397.043 119.419C397.043 120.15 396.759 120.723 396.191 121.139C395.623 121.555 394.918 121.763 394.076 121.763C393.325 121.763 392.681 121.606 392.143 121.291C391.606 120.977 391.215 120.54 390.971 119.982L392.387 119.161C392.64 119.891 393.203 120.256 394.076 120.256C394.938 120.256 395.369 119.972 395.369 119.404C395.369 118.988 394.887 118.664 393.924 118.43C393.558 118.339 393.249 118.248 392.995 118.156C392.752 118.065 392.478 117.933 392.174 117.761C391.879 117.588 391.651 117.36 391.489 117.076C391.337 116.792 391.266 116.462 391.276 116.087C391.276 115.387 391.54 114.824 392.067 114.398C392.605 113.972 393.269 113.759 394.061 113.759C394.69 113.759 395.248 113.901 395.735 114.185C396.232 114.459 396.612 114.844 396.876 115.341L395.491 116.117C395.237 115.539 394.761 115.25 394.061 115.25C393.736 115.25 393.467 115.321 393.254 115.463C393.051 115.605 392.95 115.803 392.95 116.056ZM401.22 117.685L404.69 121.565H402.727L399.607 118.05V121.565H397.964V110.913H399.607V117.319L402.56 113.956H404.568L401.22 117.685Z" fill="#5B6D6A"/>
<path d="M367.777 157.683L370.699 159.356C369.359 162.339 367.097 163.83 363.912 163.83C361.68 163.83 359.843 163.1 358.403 161.639C356.962 160.158 356.049 158.119 355.664 155.522H353.503V153.361H355.481V152.783C355.481 152.356 355.491 152.083 355.512 151.961H353.503V149.8H355.725C356.13 147.284 357.043 145.316 358.464 143.896C359.904 142.455 361.72 141.735 363.912 141.735C367.036 141.735 369.268 143.175 370.607 146.056L367.716 147.73C366.925 146.006 365.657 145.143 363.912 145.143C362.694 145.143 361.69 145.549 360.899 146.361C360.107 147.152 359.559 148.298 359.255 149.8H365.981V151.961H359.012C358.991 152.083 358.981 152.356 358.981 152.783V153.361H365.981V155.522H359.194C359.478 157.104 360.026 158.322 360.838 159.174C361.649 160.006 362.674 160.422 363.912 160.422C365.697 160.422 366.986 159.509 367.777 157.683ZM385.922 163.435H371.891V160.696L379.317 153.117C381.123 151.312 382.026 149.749 382.026 148.43C382.026 147.416 381.722 146.614 381.113 146.026C380.504 145.438 379.713 145.143 378.739 145.143C376.953 145.143 375.635 146.026 374.782 147.791L371.83 146.056C372.479 144.656 373.413 143.591 374.63 142.861C375.848 142.11 377.207 141.735 378.708 141.735C380.595 141.735 382.198 142.323 383.517 143.5C384.856 144.697 385.526 146.3 385.526 148.309C385.526 150.459 384.319 152.772 381.904 155.248L377.095 160.056H385.922V163.435ZM389.452 159.783H393.104L390.974 167.696H388.235L389.452 159.783ZM408.942 156.343H411.376V159.6H408.942V163.435H405.411V159.6H394.942V156.343L402.276 142.13H406.081L398.746 156.343H405.411V150.804H408.942V156.343ZM425.948 145.113L421.627 150.835C423.209 151.2 424.467 151.93 425.4 153.026C426.354 154.101 426.831 155.42 426.831 156.983C426.831 159.113 426.111 160.787 424.67 162.004C423.25 163.222 421.485 163.83 419.374 163.83C417.711 163.83 416.24 163.455 414.961 162.704C413.683 161.933 412.77 160.838 412.222 159.417L415.205 157.683C415.834 159.509 417.224 160.422 419.374 160.422C420.592 160.422 421.556 160.117 422.266 159.509C422.976 158.88 423.331 158.038 423.331 156.983C423.331 155.927 422.976 155.096 422.266 154.487C421.556 153.878 420.592 153.574 419.374 153.574H418.583L417.183 151.474L421.779 145.417H412.861V142.13H425.948V145.113ZM443.197 160.817C441.736 162.826 439.687 163.83 437.05 163.83C434.432 163.83 432.373 162.826 430.871 160.817C429.41 158.809 428.68 156.13 428.68 152.783C428.68 149.435 429.41 146.756 430.871 144.748C432.373 142.739 434.432 141.735 437.05 141.735C439.687 141.735 441.736 142.739 443.197 144.748C444.678 146.736 445.419 149.414 445.419 152.783C445.419 156.151 444.678 158.829 443.197 160.817ZM437.05 160.422C438.632 160.422 439.839 159.762 440.671 158.443C441.503 157.125 441.919 155.238 441.919 152.783C441.919 150.327 441.503 148.44 440.671 147.122C439.839 145.803 438.632 145.143 437.05 145.143C435.487 145.143 434.28 145.803 433.428 147.122C432.596 148.44 432.18 150.327 432.18 152.783C432.18 155.238 432.596 157.125 433.428 158.443C434.28 159.762 435.487 160.422 437.05 160.422ZM448.107 159.783H451.759L449.629 167.696H446.89L448.107 159.783ZM453.292 144.109L458.892 142.13H461.936V163.435H458.436V145.874L454.144 147.091L453.292 144.109ZM479.52 160.817C478.059 162.826 476.01 163.83 473.373 163.83C470.755 163.83 468.696 162.826 467.194 160.817C465.733 158.809 465.003 156.13 465.003 152.783C465.003 149.435 465.733 146.756 467.194 144.748C468.696 142.739 470.755 141.735 473.373 141.735C476.01 141.735 478.059 142.739 479.52 144.748C481.002 146.736 481.742 149.414 481.742 152.783C481.742 156.151 481.002 158.829 479.52 160.817ZM473.373 160.422C474.955 160.422 476.162 159.762 476.994 158.443C477.826 157.125 478.242 155.238 478.242 152.783C478.242 150.327 477.826 148.44 476.994 147.122C476.162 145.803 474.955 145.143 473.373 145.143C471.81 145.143 470.603 145.803 469.751 147.122C468.919 148.44 468.503 150.327 468.503 152.783C468.503 155.238 468.919 157.125 469.751 158.443C470.603 159.762 471.81 160.422 473.373 160.422ZM497.049 163.435H483.019V160.696L490.445 153.117C492.251 151.312 493.154 149.749 493.154 148.43C493.154 147.416 492.849 146.614 492.241 146.026C491.632 145.438 490.841 145.143 489.867 145.143C488.081 145.143 486.762 146.026 485.91 147.791L482.958 146.056C483.607 144.656 484.541 143.591 485.758 142.861C486.975 142.11 488.335 141.735 489.836 141.735C491.723 141.735 493.326 142.323 494.645 143.5C495.984 144.697 496.654 146.3 496.654 148.309C496.654 150.459 495.446 152.772 493.032 155.248L488.223 160.056H497.049V163.435Z" fill="#142E2A"/>
<g clip-path="url(#clip4_877_1263)">
<path d="M361.416 201.573L370.001 192.988L370.001 200.489C370.001 201.089 370.493 201.581 371.092 201.581C371.692 201.581 372.176 201.096 372.176 200.497L372.176 190.367C372.176 189.767 371.692 189.283 371.092 189.283L360.962 189.268C360.363 189.268 359.879 189.752 359.879 190.351C359.879 190.951 360.363 191.435 360.962 191.435L368.464 191.45L359.879 200.036C359.456 200.458 359.456 201.15 359.879 201.573C360.301 201.996 360.993 201.996 361.416 201.573Z" fill="#54B342"/>
</g>
<path d="M385.499 188.254C386.113 188.867 386.419 189.611 386.419 190.485C386.419 191.358 386.113 192.102 385.499 192.715C384.899 193.315 384.143 193.615 383.23 193.615C382.304 193.615 381.541 193.315 380.941 192.715C380.328 192.102 380.021 191.358 380.021 190.485C380.021 189.624 380.328 188.887 380.941 188.274C381.554 187.661 382.317 187.354 383.23 187.354C384.143 187.354 384.899 187.654 385.499 188.254ZM383.21 191.893C383.628 191.893 383.967 191.763 384.228 191.502C384.489 191.228 384.619 190.889 384.619 190.485C384.619 190.08 384.489 189.741 384.228 189.467C383.967 189.193 383.628 189.056 383.21 189.056C382.806 189.056 382.473 189.193 382.213 189.467C381.952 189.741 381.821 190.08 381.821 190.485C381.821 190.876 381.952 191.208 382.213 191.482C382.486 191.756 382.819 191.893 383.21 191.893ZM382.232 199.915L381.176 199.289L390.195 189.252L391.252 189.858L382.232 199.915ZM389.491 201.539C388.565 201.539 387.802 201.239 387.202 200.639C386.589 200.026 386.282 199.282 386.282 198.408C386.282 197.548 386.589 196.811 387.202 196.198C387.815 195.585 388.578 195.278 389.491 195.278C390.391 195.278 391.147 195.585 391.76 196.198C392.373 196.811 392.68 197.548 392.68 198.408C392.68 199.282 392.373 200.026 391.76 200.639C391.16 201.239 390.404 201.539 389.491 201.539ZM389.471 199.817C389.889 199.817 390.228 199.687 390.489 199.426C390.749 199.152 390.88 198.813 390.88 198.408C390.88 198.004 390.749 197.665 390.489 197.391C390.228 197.117 389.889 196.98 389.471 196.98C389.067 196.98 388.734 197.117 388.473 197.391C388.213 197.665 388.082 198.004 388.082 198.408C388.082 198.8 388.213 199.132 388.473 199.406C388.747 199.68 389.08 199.817 389.471 199.817ZM402.851 201.304H393.831V199.543L398.605 194.671C399.766 193.511 400.347 192.506 400.347 191.658C400.347 191.006 400.151 190.491 399.76 190.113C399.368 189.735 398.86 189.545 398.233 189.545C397.086 189.545 396.238 190.113 395.69 191.248L393.792 190.132C394.21 189.232 394.81 188.548 395.592 188.078C396.375 187.595 397.249 187.354 398.214 187.354C399.427 187.354 400.457 187.732 401.305 188.489C402.166 189.258 402.597 190.289 402.597 191.58C402.597 192.963 401.82 194.45 400.268 196.041L397.177 199.132H402.851V201.304ZM405.65 198.604C406.054 198.604 406.4 198.748 406.687 199.035C406.974 199.321 407.118 199.667 407.118 200.071C407.118 200.476 406.974 200.821 406.687 201.108C406.4 201.395 406.054 201.539 405.65 201.539C405.246 201.539 404.9 201.395 404.613 201.108C404.326 200.821 404.183 200.476 404.183 200.071C404.183 199.667 404.32 199.321 404.594 199.035C404.881 198.748 405.233 198.604 405.65 198.604ZM415.974 194.182C417.317 194.926 417.989 196.035 417.989 197.508C417.989 198.748 417.552 199.732 416.678 200.463C415.817 201.193 414.657 201.558 413.196 201.558C411.735 201.558 410.567 201.2 409.694 200.482C408.82 199.765 408.383 198.774 408.383 197.508C408.383 196.804 408.559 196.165 408.911 195.591C409.263 195.004 409.759 194.535 410.398 194.182C409.367 193.504 408.852 192.539 408.852 191.287C408.852 190.035 409.27 189.069 410.104 188.391C410.952 187.7 411.983 187.354 413.196 187.354C414.396 187.354 415.42 187.7 416.267 188.391C417.115 189.082 417.539 190.048 417.539 191.287C417.539 192.526 417.017 193.491 415.974 194.182ZM413.196 189.487C412.57 189.487 412.061 189.656 411.67 189.995C411.291 190.321 411.102 190.785 411.102 191.385C411.102 191.958 411.298 192.421 411.689 192.774C412.08 193.113 412.583 193.282 413.196 193.282C413.796 193.282 414.291 193.113 414.683 192.774C415.087 192.421 415.289 191.958 415.289 191.385C415.289 190.785 415.094 190.321 414.702 189.995C414.311 189.656 413.809 189.487 413.196 189.487ZM413.196 199.426C413.965 199.426 414.578 199.237 415.035 198.858C415.504 198.48 415.739 197.958 415.739 197.293C415.739 196.628 415.504 196.106 415.035 195.728C414.578 195.35 413.965 195.161 413.196 195.161C412.413 195.161 411.787 195.35 411.317 195.728C410.861 196.106 410.633 196.628 410.633 197.293C410.633 197.958 410.861 198.48 411.317 198.858C411.787 199.237 412.413 199.426 413.196 199.426ZM432.019 187.608H434.582L429.809 195.865V201.304H427.559V195.865L422.785 187.608H425.348L428.693 193.674L432.019 187.608ZM434.544 187.608H444.523V189.761H440.668V201.304H438.418V189.761H434.544V187.608ZM445.752 187.608H451.132C453.01 187.608 454.569 188.267 455.808 189.585C457.06 190.902 457.687 192.526 457.687 194.456C457.687 196.374 457.06 197.998 455.808 199.328C454.569 200.645 453.01 201.304 451.132 201.304H445.752V187.608ZM448.002 199.152H451.132C452.424 199.152 453.474 198.708 454.282 197.821C455.104 196.935 455.515 195.813 455.515 194.456C455.515 193.1 455.104 191.978 454.282 191.091C453.474 190.204 452.424 189.761 451.132 189.761H448.002V199.152Z" fill="#54B342"/>
<g opacity="0.5">
<path d="M175.325 278.37C191.798 273.53 238.398 263.461 293.013 261.902C361.282 259.953 369.518 244.971 400.239 244.094C430.96 243.217 443.204 257.614 467.098 256.932C490.992 256.25 515.85 237.516 553.398 236.445C590.945 235.373 579.814 229.136 596.325 224.569C612.835 220.001 601.816 214.581 635.95 213.606C670.084 212.632 659.287 208.844 686.595 208.064C713.902 207.285 713.234 202.388 740.541 201.609" stroke="#54B342" stroke-width="1.08696"/>
<path opacity="0.5" d="M293.013 261.902C238.398 263.461 191.798 273.53 175.325 278.37L748.78 285.685L744.661 243.647L740.541 201.609C713.234 202.388 713.902 207.285 686.595 208.064C659.287 208.844 670.084 212.632 635.95 213.606C601.816 214.581 612.835 220.001 596.325 224.569C579.814 229.136 590.945 235.373 553.398 236.445C515.85 237.516 490.992 256.25 467.098 256.932C443.204 257.614 430.96 243.217 400.239 244.094C369.518 244.971 361.282 259.953 293.013 261.902Z" fill="url(#paint1_linear_877_1263)"/>
</g>
</g>
<path d="M54.3 305.435H51.3L50.46 302.915H44.88L44.04 305.435H41.06L45.96 291.435H49.38L54.3 305.435ZM47.68 294.615L45.76 300.335H49.6L47.68 294.615ZM57.6217 298.275C57.6217 298.701 58.2284 299.068 59.4417 299.375C59.8684 299.468 60.2551 299.581 60.6017 299.715C60.9484 299.835 61.2951 300.015 61.6417 300.255C62.0017 300.481 62.2817 300.788 62.4817 301.175C62.6817 301.561 62.7817 302.008 62.7817 302.515C62.7817 303.541 62.3951 304.335 61.6217 304.895C60.8484 305.441 59.8951 305.715 58.7617 305.715C56.7084 305.715 55.3084 304.921 54.5617 303.335L56.8017 302.075C57.1084 302.941 57.7617 303.375 58.7617 303.375C59.6817 303.375 60.1417 303.088 60.1417 302.515C60.1417 302.088 59.5351 301.721 58.3217 301.415C57.8684 301.295 57.4817 301.175 57.1617 301.055C56.8417 300.935 56.4951 300.761 56.1217 300.535C55.7484 300.295 55.4617 299.995 55.2617 299.635C55.0751 299.261 54.9817 298.828 54.9817 298.335C54.9817 297.348 55.3417 296.575 56.0617 296.015C56.7951 295.441 57.7017 295.155 58.7817 295.155C59.5951 295.155 60.3351 295.341 61.0017 295.715C61.6684 296.075 62.1951 296.595 62.5817 297.275L60.3817 298.475C60.0617 297.795 59.5284 297.455 58.7817 297.455C58.4484 297.455 58.1684 297.535 57.9417 297.695C57.7284 297.841 57.6217 298.035 57.6217 298.275ZM66.0936 298.275C66.0936 298.701 66.7003 299.068 67.9136 299.375C68.3403 299.468 68.7269 299.581 69.0736 299.715C69.4203 299.835 69.7669 300.015 70.1136 300.255C70.4736 300.481 70.7536 300.788 70.9536 301.175C71.1536 301.561 71.2536 302.008 71.2536 302.515C71.2536 303.541 70.8669 304.335 70.0936 304.895C69.3203 305.441 68.3669 305.715 67.2336 305.715C65.1803 305.715 63.7803 304.921 63.0336 303.335L65.2736 302.075C65.5803 302.941 66.2336 303.375 67.2336 303.375C68.1536 303.375 68.6136 303.088 68.6136 302.515C68.6136 302.088 68.0069 301.721 66.7936 301.415C66.3403 301.295 65.9536 301.175 65.6336 301.055C65.3136 300.935 64.9669 300.761 64.5936 300.535C64.2203 300.295 63.9336 299.995 63.7336 299.635C63.5469 299.261 63.4536 298.828 63.4536 298.335C63.4536 297.348 63.8136 296.575 64.5336 296.015C65.2669 295.441 66.1736 295.155 67.2536 295.155C68.0669 295.155 68.8069 295.341 69.4736 295.715C70.1403 296.075 70.6669 296.595 71.0536 297.275L68.8536 298.475C68.5336 297.795 68.0003 297.455 67.2536 297.455C66.9203 297.455 66.6403 297.535 66.4136 297.695C66.2003 297.841 66.0936 298.035 66.0936 298.275ZM82.2961 301.495H74.7561C75.0894 302.748 76.0294 303.375 77.5761 303.375C78.5628 303.375 79.3094 303.041 79.8161 302.375L81.8961 303.575C80.9094 305.001 79.4561 305.715 77.5361 305.715C75.8828 305.715 74.5561 305.215 73.5561 304.215C72.5561 303.215 72.0561 301.955 72.0561 300.435C72.0561 298.941 72.5494 297.688 73.5361 296.675C74.5094 295.661 75.7761 295.155 77.3361 295.155C78.8161 295.155 80.0228 295.661 80.9561 296.675C81.9161 297.688 82.3961 298.941 82.3961 300.435C82.3961 300.715 82.3628 301.068 82.2961 301.495ZM74.7161 299.495H79.8161C79.6694 298.841 79.3694 298.341 78.9161 297.995C78.4761 297.648 77.9494 297.475 77.3361 297.475C76.6428 297.475 76.0694 297.655 75.6161 298.015C75.1628 298.361 74.8628 298.855 74.7161 299.495ZM89.4242 295.435V297.915H87.1642V302.075C87.1642 302.421 87.2509 302.675 87.4242 302.835C87.5976 302.995 87.8509 303.088 88.1842 303.115C88.5176 303.128 88.9309 303.121 89.4242 303.095V305.435C87.6776 305.635 86.4309 305.475 85.6842 304.955C84.9509 304.421 84.5842 303.461 84.5842 302.075V297.915H82.8442V295.435H84.5842V293.415L87.1642 292.635V295.435H89.4242ZM103.6 296.615V295.435H106.18V305.435H103.6V304.255C102.826 305.228 101.74 305.715 100.34 305.715C99.0062 305.715 97.8595 305.208 96.8995 304.195C95.9529 303.168 95.4795 301.915 95.4795 300.435C95.4795 298.968 95.9529 297.721 96.8995 296.695C97.8595 295.668 99.0062 295.155 100.34 295.155C101.74 295.155 102.826 295.641 103.6 296.615ZM98.8395 302.475C99.3595 302.995 100.02 303.255 100.82 303.255C101.62 303.255 102.28 302.995 102.8 302.475C103.333 301.941 103.6 301.261 103.6 300.435C103.6 299.608 103.333 298.935 102.8 298.415C102.28 297.881 101.62 297.615 100.82 297.615C100.02 297.615 99.3595 297.881 98.8395 298.415C98.3195 298.935 98.0595 299.608 98.0595 300.435C98.0595 301.261 98.3195 301.941 98.8395 302.475ZM110.899 305.435H108.319V290.835H110.899V305.435ZM115.64 305.435H113.06V290.835H115.64V305.435ZM126.322 304.195C125.309 305.208 124.055 305.715 122.562 305.715C121.069 305.715 119.815 305.208 118.802 304.195C117.789 303.181 117.282 301.928 117.282 300.435C117.282 298.955 117.789 297.708 118.802 296.695C119.829 295.668 121.082 295.155 122.562 295.155C124.042 295.155 125.295 295.668 126.322 296.695C127.349 297.721 127.862 298.968 127.862 300.435C127.862 301.915 127.349 303.168 126.322 304.195ZM120.622 302.415C121.142 302.935 121.789 303.195 122.562 303.195C123.335 303.195 123.982 302.935 124.502 302.415C125.022 301.895 125.282 301.235 125.282 300.435C125.282 299.635 125.022 298.975 124.502 298.455C123.982 297.935 123.335 297.675 122.562 297.675C121.789 297.675 121.142 297.935 120.622 298.455C120.115 298.988 119.862 299.648 119.862 300.435C119.862 301.221 120.115 301.881 120.622 302.415ZM134.237 305.715C132.73 305.715 131.47 305.208 130.457 304.195C129.457 303.181 128.957 301.928 128.957 300.435C128.957 298.941 129.457 297.688 130.457 296.675C131.47 295.661 132.73 295.155 134.237 295.155C135.21 295.155 136.097 295.388 136.897 295.855C137.697 296.321 138.304 296.948 138.717 297.735L136.497 299.035C136.297 298.621 135.99 298.295 135.577 298.055C135.177 297.815 134.724 297.695 134.217 297.695C133.444 297.695 132.804 297.955 132.297 298.475C131.79 298.981 131.537 299.635 131.537 300.435C131.537 301.208 131.79 301.861 132.297 302.395C132.804 302.901 133.444 303.155 134.217 303.155C134.737 303.155 135.197 303.041 135.597 302.815C136.01 302.575 136.317 302.248 136.517 301.835L138.757 303.115C138.317 303.915 137.69 304.548 136.877 305.015C136.077 305.481 135.197 305.715 134.237 305.715ZM147.365 296.615V295.435H149.945V305.435H147.365V304.255C146.592 305.228 145.505 305.715 144.105 305.715C142.772 305.715 141.625 305.208 140.665 304.195C139.718 303.168 139.245 301.915 139.245 300.435C139.245 298.968 139.718 297.721 140.665 296.695C141.625 295.668 142.772 295.155 144.105 295.155C145.505 295.155 146.592 295.641 147.365 296.615ZM142.605 302.475C143.125 302.995 143.785 303.255 144.585 303.255C145.385 303.255 146.045 302.995 146.565 302.475C147.098 301.941 147.365 301.261 147.365 300.435C147.365 299.608 147.098 298.935 146.565 298.415C146.045 297.881 145.385 297.615 144.585 297.615C143.785 297.615 143.125 297.881 142.605 298.415C142.085 298.935 141.825 299.608 141.825 300.435C141.825 301.261 142.085 301.941 142.605 302.475ZM157.805 295.435V297.915H155.545V302.075C155.545 302.421 155.631 302.675 155.805 302.835C155.978 302.995 156.231 303.088 156.565 303.115C156.898 303.128 157.311 303.121 157.805 303.095V305.435C156.058 305.635 154.811 305.475 154.065 304.955C153.331 304.421 152.965 303.461 152.965 302.075V297.915H151.225V295.435H152.965V293.415L155.545 292.635V295.435H157.805ZM160.704 294.235C160.277 294.235 159.904 294.081 159.584 293.775C159.277 293.455 159.124 293.081 159.124 292.655C159.124 292.228 159.277 291.855 159.584 291.535C159.904 291.215 160.277 291.055 160.704 291.055C161.144 291.055 161.517 291.215 161.824 291.535C162.144 291.855 162.304 292.228 162.304 292.655C162.304 293.081 162.144 293.455 161.824 293.775C161.517 294.081 161.144 294.235 160.704 294.235ZM162.004 305.435H159.424V295.435H162.004V305.435ZM172.685 304.195C171.672 305.208 170.418 305.715 168.925 305.715C167.432 305.715 166.178 305.208 165.165 304.195C164.152 303.181 163.645 301.928 163.645 300.435C163.645 298.955 164.152 297.708 165.165 296.695C166.192 295.668 167.445 295.155 168.925 295.155C170.405 295.155 171.658 295.668 172.685 296.695C173.712 297.721 174.225 298.968 174.225 300.435C174.225 301.915 173.712 303.168 172.685 304.195ZM166.985 302.415C167.505 302.935 168.152 303.195 168.925 303.195C169.698 303.195 170.345 302.935 170.865 302.415C171.385 301.895 171.645 301.235 171.645 300.435C171.645 299.635 171.385 298.975 170.865 298.455C170.345 297.935 169.698 297.675 168.925 297.675C168.152 297.675 167.505 297.935 166.985 298.455C166.478 298.988 166.225 299.648 166.225 300.435C166.225 301.221 166.478 301.881 166.985 302.415ZM181.4 295.155C182.507 295.155 183.407 295.521 184.1 296.255C184.82 297.001 185.18 298.015 185.18 299.295V305.435H182.6V299.615C182.6 298.961 182.42 298.455 182.06 298.095C181.713 297.735 181.233 297.555 180.62 297.555C179.94 297.555 179.4 297.768 179 298.195C178.613 298.608 178.42 299.221 178.42 300.035V305.435H175.84V295.435H178.42V296.555C179.033 295.621 180.027 295.155 181.4 295.155Z" fill="#142E2A"/>
<path d="M408.599 294.635H412.449C413.793 294.635 414.908 295.106 415.795 296.049C416.691 296.991 417.139 298.153 417.139 299.535C417.139 300.907 416.691 302.069 415.795 303.021C414.908 303.963 413.793 304.435 412.449 304.435H408.599V294.635ZM410.209 302.895H412.449C413.373 302.895 414.124 302.577 414.703 301.943C415.291 301.308 415.585 300.505 415.585 299.535C415.585 298.564 415.291 297.761 414.703 297.127C414.124 296.492 413.373 296.175 412.449 296.175H410.209V302.895ZM425.271 301.579H419.699C419.811 302.101 420.063 302.507 420.455 302.797C420.856 303.086 421.351 303.231 421.939 303.231C422.732 303.231 423.334 302.941 423.745 302.363L424.991 303.091C424.31 304.108 423.288 304.617 421.925 304.617C420.796 304.617 419.876 304.271 419.167 303.581C418.467 302.881 418.117 301.999 418.117 300.935C418.117 299.899 418.462 299.026 419.153 298.317C419.834 297.607 420.721 297.253 421.813 297.253C422.83 297.253 423.67 297.612 424.333 298.331C424.996 299.049 425.327 299.922 425.327 300.949C425.327 301.135 425.308 301.345 425.271 301.579ZM419.685 300.347H423.801C423.698 299.796 423.465 299.371 423.101 299.073C422.746 298.774 422.312 298.625 421.799 298.625C421.239 298.625 420.772 298.779 420.399 299.087C420.026 299.395 419.788 299.815 419.685 300.347ZM430.345 297.435V298.891H428.609V302.251C428.609 302.54 428.674 302.75 428.805 302.881C428.935 303.002 429.127 303.072 429.379 303.091C429.64 303.1 429.962 303.095 430.345 303.077V304.435C429.187 304.575 428.357 304.477 427.853 304.141C427.349 303.795 427.097 303.165 427.097 302.251V298.891H425.809V297.435H427.097V295.923L428.609 295.475V297.435H430.345ZM436.973 298.429V297.435H438.485V304.435H436.973V303.427C436.404 304.22 435.587 304.617 434.523 304.617C433.562 304.617 432.74 304.262 432.059 303.553C431.378 302.843 431.037 301.971 431.037 300.935C431.037 299.899 431.378 299.026 432.059 298.317C432.74 297.607 433.562 297.253 434.523 297.253C435.587 297.253 436.404 297.645 436.973 298.429ZM433.179 302.545C433.599 302.965 434.126 303.175 434.761 303.175C435.396 303.175 435.923 302.965 436.343 302.545C436.763 302.115 436.973 301.579 436.973 300.935C436.973 300.291 436.763 299.759 436.343 299.339C435.923 298.909 435.396 298.695 434.761 298.695C434.126 298.695 433.599 298.909 433.179 299.339C432.759 299.759 432.549 300.291 432.549 300.935C432.549 301.569 432.759 302.106 433.179 302.545ZM441.675 296.105C441.489 296.291 441.265 296.385 441.003 296.385C440.742 296.385 440.513 296.291 440.317 296.105C440.131 295.909 440.037 295.68 440.037 295.419C440.037 295.157 440.131 294.933 440.317 294.747C440.504 294.551 440.733 294.453 441.003 294.453C441.274 294.453 441.503 294.551 441.689 294.747C441.876 294.933 441.969 295.157 441.969 295.419C441.969 295.68 441.871 295.909 441.675 296.105ZM441.759 304.435H440.247V297.435H441.759V304.435ZM445.027 304.435H443.515V294.215H445.027V304.435ZM448.099 299.367C448.099 299.581 448.211 299.759 448.435 299.899C448.659 300.029 448.986 300.155 449.415 300.277C449.742 300.351 450.027 300.431 450.269 300.515C450.512 300.599 450.769 300.725 451.039 300.893C451.31 301.051 451.515 301.266 451.655 301.537C451.805 301.798 451.875 302.106 451.865 302.461C451.865 303.133 451.604 303.66 451.081 304.043C450.559 304.425 449.91 304.617 449.135 304.617C448.445 304.617 447.852 304.472 447.357 304.183C446.863 303.893 446.503 303.492 446.279 302.979L447.581 302.223C447.815 302.895 448.333 303.231 449.135 303.231C449.929 303.231 450.325 302.969 450.325 302.447C450.325 302.064 449.882 301.765 448.995 301.551C448.659 301.467 448.375 301.383 448.141 301.299C447.917 301.215 447.665 301.093 447.385 300.935C447.115 300.776 446.905 300.566 446.755 300.305C446.615 300.043 446.55 299.74 446.559 299.395C446.559 298.751 446.802 298.233 447.287 297.841C447.782 297.449 448.393 297.253 449.121 297.253C449.7 297.253 450.213 297.383 450.661 297.645C451.119 297.897 451.469 298.251 451.711 298.709L450.437 299.423C450.204 298.891 449.765 298.625 449.121 298.625C448.823 298.625 448.575 298.69 448.379 298.821C448.193 298.951 448.099 299.133 448.099 299.367Z" fill="#142E2A"/>
<path d="M460.097 304.478L465.925 298.65L465.818 303.635C465.809 304.033 466.129 304.353 466.527 304.344C466.926 304.336 467.254 304.007 467.263 303.609L467.408 296.877C467.417 296.479 467.102 296.164 466.704 296.172L459.972 296.307C459.574 296.316 459.245 296.645 459.236 297.043C459.228 297.441 459.543 297.756 459.941 297.748L464.926 297.65L459.098 303.479C458.811 303.766 458.801 304.225 459.076 304.5C459.35 304.775 459.81 304.765 460.097 304.478Z" fill="#142E2A"/>
<rect width="212" height="213" transform="translate(41 333.435)" fill="#142E2A"/>
<path d="M87.738 422.235H89.13V433.435H88.01V423.931L84.09 430.491H83.93L80.01 423.931V433.435H78.89V422.235H80.282L84.01 428.475L87.738 422.235ZM96.9989 429.627V425.435H98.0549V433.435H96.9989V432.187C96.4015 433.147 95.5055 433.627 94.3109 433.627C93.3509 433.627 92.5882 433.333 92.0229 432.747C91.4575 432.149 91.1749 431.349 91.1749 430.347V425.435H92.2309V430.347C92.2309 431.061 92.4175 431.616 92.7909 432.011C93.1749 432.405 93.7135 432.603 94.4069 432.603C95.2069 432.603 95.8362 432.352 96.2949 431.851C96.7642 431.349 96.9989 430.608 96.9989 429.627ZM104.369 425.435V426.459H102.065V431.307C102.065 431.744 102.15 432.059 102.321 432.251C102.491 432.432 102.747 432.528 103.089 432.539C103.43 432.539 103.857 432.528 104.369 432.507V433.435C103.227 433.605 102.379 433.525 101.825 433.195C101.281 432.853 101.009 432.224 101.009 431.307V426.459H99.3288V425.435H101.009V423.515L102.065 423.195V425.435H104.369ZM111.601 429.627V425.435H112.657V433.435H111.601V432.187C111.003 433.147 110.107 433.627 108.913 433.627C107.953 433.627 107.19 433.333 106.625 432.747C106.059 432.149 105.777 431.349 105.777 430.347V425.435H106.833V430.347C106.833 431.061 107.019 431.616 107.393 432.011C107.777 432.405 108.315 432.603 109.009 432.603C109.809 432.603 110.438 432.352 110.897 431.851C111.366 431.349 111.601 430.608 111.601 429.627ZM121.611 427.003V425.435H122.667V433.435H121.611V431.867C120.875 433.04 119.797 433.627 118.379 433.627C117.237 433.627 116.261 433.221 115.451 432.411C114.651 431.6 114.251 430.608 114.251 429.435C114.251 428.261 114.651 427.269 115.451 426.459C116.261 425.648 117.237 425.243 118.379 425.243C119.797 425.243 120.875 425.829 121.611 427.003ZM116.219 431.691C116.827 432.299 117.573 432.603 118.459 432.603C119.344 432.603 120.091 432.299 120.699 431.691C121.307 431.061 121.611 430.309 121.611 429.435C121.611 428.549 121.307 427.803 120.699 427.195C120.091 426.576 119.344 426.267 118.459 426.267C117.573 426.267 116.827 426.576 116.219 427.195C115.611 427.803 115.307 428.549 115.307 429.435C115.307 430.309 115.611 431.061 116.219 431.691ZM125.799 433.435H124.743V421.755H125.799V433.435ZM138.199 422.235V423.291H132.999V427.419H137.959V428.475H132.999V433.435H131.879V422.235H138.199ZM145.426 429.627V425.435H146.482V433.435H145.426V432.187C144.828 433.147 143.932 433.627 142.738 433.627C141.778 433.627 141.015 433.333 140.45 432.747C139.884 432.149 139.602 431.349 139.602 430.347V425.435H140.658V430.347C140.658 431.061 140.844 431.616 141.218 432.011C141.602 432.405 142.14 432.603 142.834 432.603C143.634 432.603 144.263 432.352 144.722 431.851C145.191 431.349 145.426 430.608 145.426 429.627ZM152.3 425.243C153.26 425.243 154.022 425.541 154.588 426.139C155.153 426.725 155.436 427.52 155.436 428.523V433.435H154.38V428.523C154.38 427.808 154.188 427.253 153.804 426.859C153.43 426.464 152.897 426.267 152.204 426.267C151.404 426.267 150.769 426.517 150.3 427.019C149.841 427.52 149.612 428.261 149.612 429.243V433.435H148.556V425.435H149.612V426.683C150.209 425.723 151.105 425.243 152.3 425.243ZM164.198 427.003V422.235H165.254V433.435H164.198V431.867C163.462 433.04 162.384 433.627 160.966 433.627C159.824 433.627 158.848 433.221 158.038 432.411C157.238 431.6 156.838 430.608 156.838 429.435C156.838 428.261 157.238 427.269 158.038 426.459C158.848 425.648 159.824 425.243 160.966 425.243C162.384 425.243 163.462 425.829 164.198 427.003ZM158.806 431.691C159.414 432.299 160.16 432.603 161.046 432.603C161.931 432.603 162.678 432.299 163.286 431.691C163.894 431.061 164.198 430.309 164.198 429.435C164.198 428.549 163.894 427.803 163.286 427.195C162.678 426.576 161.931 426.267 161.046 426.267C160.16 426.267 159.414 426.576 158.806 427.195C158.198 427.803 157.894 428.549 157.894 429.435C157.894 430.309 158.198 431.061 158.806 431.691ZM168.161 427.531C168.161 428.149 168.711 428.603 169.809 428.891C170.119 428.965 170.321 429.019 170.417 429.051C170.513 429.072 170.7 429.131 170.977 429.227C171.265 429.312 171.463 429.387 171.569 429.451C171.687 429.515 171.847 429.616 172.049 429.755C172.252 429.883 172.396 430.016 172.481 430.155C172.567 430.283 172.647 430.453 172.721 430.667C172.796 430.869 172.833 431.088 172.833 431.323C172.833 432.005 172.561 432.56 172.017 432.987C171.495 433.413 170.801 433.627 169.937 433.627C169.191 433.627 168.545 433.461 168.001 433.131C167.457 432.789 167.073 432.341 166.849 431.787L167.745 431.259C167.895 431.675 168.161 432.005 168.545 432.251C168.94 432.485 169.404 432.603 169.937 432.603C170.481 432.603 170.924 432.496 171.265 432.283C171.607 432.069 171.777 431.749 171.777 431.323C171.777 430.704 171.228 430.251 170.129 429.963C169.82 429.888 169.617 429.84 169.521 429.819C169.425 429.787 169.233 429.728 168.945 429.643C168.668 429.547 168.471 429.467 168.353 429.403C168.247 429.339 168.092 429.243 167.889 429.115C167.687 428.976 167.543 428.843 167.457 428.715C167.372 428.576 167.292 428.405 167.217 428.203C167.143 427.989 167.105 427.765 167.105 427.531C167.105 426.88 167.361 426.336 167.873 425.899C168.407 425.461 169.063 425.243 169.841 425.243C170.481 425.243 171.047 425.387 171.537 425.675C172.039 425.963 172.407 426.363 172.641 426.875L171.761 427.387C171.463 426.64 170.823 426.267 169.841 426.267C169.361 426.267 168.961 426.379 168.641 426.603C168.321 426.827 168.161 427.136 168.161 427.531ZM185.763 431.467L187.267 433.067L186.275 433.627L185.091 432.363C184.248 433.205 183.15 433.627 181.795 433.627C180.707 433.627 179.816 433.344 179.123 432.779C178.451 432.203 178.115 431.429 178.115 430.459C178.115 429.744 178.296 429.104 178.659 428.539C179.032 427.973 179.571 427.531 180.275 427.211C179.72 426.592 179.443 425.888 179.443 425.099C179.443 424.171 179.763 423.429 180.403 422.875C181.032 422.32 181.779 422.043 182.643 422.043C183.358 422.043 184.008 422.245 184.595 422.651C185.192 423.056 185.619 423.595 185.875 424.267L184.931 424.811C184.771 424.288 184.483 423.877 184.067 423.579C183.662 423.28 183.192 423.131 182.659 423.131C182.083 423.131 181.587 423.307 181.171 423.659C180.766 424.011 180.563 424.469 180.563 425.035C180.563 425.397 180.643 425.728 180.803 426.027C180.963 426.315 181.23 426.651 181.603 427.035L184.979 430.635C185.288 430.016 185.491 429.307 185.587 428.507L186.579 429.083C186.43 430.021 186.158 430.816 185.763 431.467ZM181.763 432.539C182.83 432.539 183.683 432.208 184.323 431.547L181.027 428.043C180.419 428.267 179.966 428.592 179.667 429.019C179.379 429.435 179.235 429.904 179.235 430.427C179.235 431.077 179.459 431.595 179.907 431.979C180.366 432.352 180.984 432.539 181.763 432.539ZM193.751 428.315V432.379H199.191V433.435H192.631V422.235H199.111V423.291H193.751V427.259H198.711V428.315H193.751ZM199.995 422.235H207.995V423.291H204.555V433.435H203.435V423.291H199.995V422.235ZM215.756 422.235V423.291H210.556V427.419H215.516V428.475H210.556V433.435H209.436V422.235H215.756Z" fill="#E3DDD2"/>
<path d="M129.342 451.483H130.542V453.531H129.342V455.435H127.118V453.531H121.822V451.483L125.55 444.235H127.918L124.206 451.483H127.118V448.827H129.342V451.483ZM137.74 449.611C138.775 450.229 139.292 451.131 139.292 452.315C139.292 453.349 138.93 454.165 138.204 454.763C137.49 455.36 136.514 455.659 135.276 455.659C134.028 455.659 133.047 455.36 132.332 454.763C131.618 454.165 131.26 453.349 131.26 452.315C131.26 451.141 131.772 450.24 132.796 449.611C132.018 449.056 131.628 448.283 131.628 447.291C131.628 446.256 131.975 445.451 132.668 444.875C133.372 444.299 134.242 444.011 135.276 444.011C136.322 444.011 137.186 444.299 137.868 444.875C138.562 445.451 138.908 446.256 138.908 447.291C138.908 448.283 138.519 449.056 137.74 449.611ZM136.716 447.403C136.716 446.997 136.583 446.677 136.316 446.443C136.05 446.208 135.703 446.091 135.276 446.091C134.85 446.091 134.503 446.208 134.236 446.443C133.97 446.677 133.836 446.997 133.836 447.403C133.836 447.819 133.97 448.144 134.236 448.379C134.503 448.613 134.85 448.731 135.276 448.731C135.703 448.731 136.05 448.613 136.316 448.379C136.583 448.144 136.716 447.819 136.716 447.403ZM136.604 453.163C136.935 452.885 137.1 452.507 137.1 452.027C137.1 451.547 136.935 451.173 136.604 450.907C136.274 450.629 135.831 450.491 135.276 450.491C134.722 450.491 134.279 450.629 133.948 450.907C133.618 451.173 133.452 451.547 133.452 452.027C133.452 452.507 133.618 452.885 133.948 453.163C134.279 453.44 134.722 453.579 135.276 453.579C135.831 453.579 136.274 453.44 136.604 453.163ZM143.17 454.283C143.17 454.656 143.037 454.976 142.77 455.243C142.503 455.509 142.183 455.643 141.81 455.643C141.437 455.643 141.117 455.509 140.85 455.243C140.583 454.976 140.45 454.656 140.45 454.283C140.45 453.909 140.583 453.589 140.85 453.323C141.117 453.056 141.437 452.923 141.81 452.923C142.183 452.923 142.503 453.056 142.77 453.323C143.037 453.589 143.17 453.909 143.17 454.283ZM151.531 446.059L149.435 448.779C150.214 449.003 150.833 449.397 151.291 449.963C151.761 450.528 151.995 451.2 151.995 451.979C151.995 453.131 151.606 454.032 150.827 454.683C150.07 455.333 149.126 455.659 147.995 455.659C147.11 455.659 146.326 455.456 145.643 455.051C144.961 454.635 144.465 454.048 144.155 453.291L146.043 452.203C146.31 453.067 146.961 453.499 147.995 453.499C148.561 453.499 148.998 453.365 149.307 453.099C149.627 452.821 149.787 452.448 149.787 451.979C149.787 451.52 149.627 451.152 149.307 450.875C148.998 450.597 148.561 450.459 147.995 450.459H147.515L146.667 449.179L148.875 446.299H144.491V444.235H151.531V446.059ZM160.016 455.435H152.528V453.787L156.352 449.851C157.205 448.944 157.632 448.197 157.632 447.611C157.632 447.173 157.493 446.821 157.216 446.555C156.949 446.288 156.603 446.155 156.176 446.155C155.323 446.155 154.699 446.592 154.304 447.467L152.448 446.379C152.789 445.621 153.285 445.04 153.936 444.635C154.597 444.219 155.333 444.011 156.144 444.011C157.157 444.011 158.027 444.331 158.752 444.971C159.477 445.6 159.84 446.453 159.84 447.531C159.84 448.693 159.227 449.888 158 451.115L155.808 453.307H160.016V455.435ZM165.624 448.539C165.101 449.04 164.461 449.291 163.704 449.291C162.936 449.291 162.29 449.035 161.768 448.523C161.256 448.011 161 447.387 161 446.651C161 445.915 161.256 445.291 161.768 444.779C162.301 444.267 162.946 444.011 163.704 444.011C164.472 444.011 165.112 444.267 165.624 444.779C166.136 445.269 166.392 445.893 166.392 446.651C166.392 447.397 166.136 448.027 165.624 448.539ZM163.096 454.299L162.136 453.739L169.432 445.627L170.408 446.171L163.096 454.299ZM162.968 447.387C163.16 447.579 163.4 447.675 163.688 447.675C163.976 447.675 164.216 447.579 164.408 447.387C164.6 447.184 164.696 446.939 164.696 446.651C164.696 446.363 164.6 446.123 164.408 445.931C164.216 445.739 163.976 445.643 163.688 445.643C163.4 445.643 163.16 445.739 162.968 445.931C162.786 446.123 162.696 446.363 162.696 446.651C162.696 446.939 162.786 447.184 162.968 447.387ZM171.8 452.987C171.8 453.723 171.544 454.347 171.032 454.859C170.52 455.371 169.88 455.627 169.112 455.627C168.344 455.627 167.704 455.371 167.192 454.859C166.68 454.347 166.424 453.723 166.424 452.987C166.424 452.251 166.68 451.627 167.192 451.115C167.704 450.603 168.344 450.347 169.112 450.347C169.88 450.347 170.52 450.603 171.032 451.115C171.544 451.627 171.8 452.251 171.8 452.987ZM169.816 453.723C170.008 453.52 170.104 453.275 170.104 452.987C170.104 452.699 170.008 452.459 169.816 452.267C169.634 452.064 169.4 451.963 169.112 451.963C168.824 451.963 168.584 452.064 168.392 452.267C168.21 452.459 168.12 452.699 168.12 452.987C168.12 453.275 168.21 453.52 168.392 453.723C168.584 453.915 168.824 454.011 169.112 454.011C169.4 454.011 169.634 453.915 169.816 453.723Z" fill="#E3DDD2"/>
<rect width="212" height="101" transform="translate(259 333.435)" fill="#142E2A"/>
<path d="M346.419 377.627C345.395 377.627 344.515 377.387 343.779 376.907C343.053 376.416 342.547 375.744 342.259 374.891L343.219 374.331C343.421 375.035 343.795 375.579 344.339 375.963C344.893 376.347 345.592 376.539 346.435 376.539C347.256 376.539 347.901 376.357 348.371 375.995C348.84 375.632 349.075 375.141 349.075 374.523C349.075 373.936 348.861 373.493 348.435 373.195C348.019 372.896 347.315 372.587 346.323 372.267C345.139 371.872 344.371 371.563 344.019 371.339C343.165 370.827 342.739 370.085 342.739 369.115C342.739 368.165 343.069 367.419 343.731 366.875C344.381 366.32 345.197 366.043 346.179 366.043C347.021 366.043 347.768 366.267 348.419 366.715C349.069 367.152 349.555 367.733 349.875 368.459L348.931 368.987C348.419 367.749 347.501 367.131 346.179 367.131C345.475 367.131 344.909 367.307 344.483 367.659C344.067 368 343.859 368.469 343.859 369.067C343.859 369.632 344.051 370.048 344.435 370.315C344.829 370.592 345.464 370.875 346.339 371.163L347.203 371.467C347.384 371.52 347.64 371.616 347.971 371.755C348.333 371.893 348.584 372.011 348.723 372.107C349.288 372.448 349.645 372.763 349.795 373.051C350.061 373.477 350.195 373.957 350.195 374.491C350.195 375.44 349.848 376.203 349.155 376.779C348.461 377.344 347.549 377.627 346.419 377.627ZM355.803 369.435V370.459H353.499V375.307C353.499 375.744 353.584 376.059 353.755 376.251C353.926 376.432 354.182 376.528 354.523 376.539C354.864 376.539 355.291 376.528 355.803 376.507V377.435C354.662 377.605 353.814 377.525 353.259 377.195C352.715 376.853 352.443 376.224 352.443 375.307V370.459H350.763V369.435H352.443V367.515L353.499 367.195V369.435H355.803ZM363.623 376.427C362.801 377.227 361.809 377.627 360.647 377.627C359.463 377.627 358.465 377.227 357.655 376.427C356.844 375.616 356.439 374.619 356.439 373.435C356.439 372.251 356.844 371.259 357.655 370.459C358.465 369.648 359.463 369.243 360.647 369.243C361.82 369.243 362.812 369.648 363.623 370.459C364.444 371.259 364.855 372.251 364.855 373.435C364.855 374.608 364.444 375.605 363.623 376.427ZM358.407 375.691C359.015 376.299 359.761 376.603 360.647 376.603C361.532 376.603 362.279 376.299 362.887 375.691C363.495 375.061 363.799 374.309 363.799 373.435C363.799 372.549 363.495 371.803 362.887 371.195C362.279 370.576 361.532 370.267 360.647 370.267C359.761 370.267 359.015 370.576 358.407 371.195C357.799 371.803 357.495 372.549 357.495 373.435C357.495 374.309 357.799 375.061 358.407 375.691ZM370.19 377.627C368.985 377.627 367.982 377.227 367.182 376.427C366.382 375.605 365.982 374.608 365.982 373.435C365.982 372.251 366.382 371.259 367.182 370.459C367.982 369.648 368.985 369.243 370.19 369.243C370.979 369.243 371.689 369.435 372.318 369.819C372.947 370.192 373.406 370.699 373.694 371.339L372.83 371.835C372.617 371.355 372.27 370.976 371.79 370.699C371.321 370.411 370.787 370.267 370.19 370.267C369.305 370.267 368.558 370.576 367.95 371.195C367.342 371.803 367.038 372.549 367.038 373.435C367.038 374.309 367.342 375.061 367.95 375.691C368.558 376.299 369.305 376.603 370.19 376.603C370.777 376.603 371.305 376.464 371.774 376.187C372.254 375.909 372.627 375.525 372.894 375.035L373.774 375.547C373.443 376.187 372.958 376.693 372.318 377.067C371.678 377.44 370.969 377.627 370.19 377.627ZM377.306 373.275L381.594 377.435H380.186L376.186 373.579V377.435H375.13V366.235H376.186V372.971L379.994 369.435H381.434L377.306 373.275ZM383.068 371.531C383.068 372.149 383.617 372.603 384.716 372.891C385.025 372.965 385.228 373.019 385.324 373.051C385.42 373.072 385.606 373.131 385.884 373.227C386.172 373.312 386.369 373.387 386.476 373.451C386.593 373.515 386.753 373.616 386.956 373.755C387.158 373.883 387.302 374.016 387.388 374.155C387.473 374.283 387.553 374.453 387.628 374.667C387.702 374.869 387.74 375.088 387.74 375.323C387.74 376.005 387.468 376.56 386.924 376.987C386.401 377.413 385.708 377.627 384.844 377.627C384.097 377.627 383.452 377.461 382.908 377.131C382.364 376.789 381.98 376.341 381.756 375.787L382.652 375.259C382.801 375.675 383.068 376.005 383.452 376.251C383.846 376.485 384.31 376.603 384.844 376.603C385.388 376.603 385.83 376.496 386.172 376.283C386.513 376.069 386.684 375.749 386.684 375.323C386.684 374.704 386.134 374.251 385.036 373.963C384.726 373.888 384.524 373.84 384.428 373.819C384.332 373.787 384.14 373.728 383.852 373.643C383.574 373.547 383.377 373.467 383.26 373.403C383.153 373.339 382.998 373.243 382.796 373.115C382.593 372.976 382.449 372.843 382.364 372.715C382.278 372.576 382.198 372.405 382.124 372.203C382.049 371.989 382.012 371.765 382.012 371.531C382.012 370.88 382.268 370.336 382.78 369.899C383.313 369.461 383.969 369.243 384.748 369.243C385.388 369.243 385.953 369.387 386.444 369.675C386.945 369.963 387.313 370.363 387.548 370.875L386.668 371.387C386.369 370.64 385.729 370.267 384.748 370.267C384.268 370.267 383.868 370.379 383.548 370.603C383.228 370.827 383.068 371.136 383.068 371.531Z" fill="#E3DDD2"/>
<path d="M349.242 399.435H341.754V397.787L345.578 393.851C346.431 392.944 346.858 392.197 346.858 391.611C346.858 391.173 346.719 390.821 346.442 390.555C346.175 390.288 345.829 390.155 345.402 390.155C344.549 390.155 343.925 390.592 343.53 391.467L341.674 390.379C342.015 389.621 342.511 389.04 343.162 388.635C343.823 388.219 344.559 388.011 345.37 388.011C346.383 388.011 347.253 388.331 347.978 388.971C348.703 389.6 349.066 390.453 349.066 391.531C349.066 392.693 348.453 393.888 347.226 395.115L345.034 397.307H349.242V399.435ZM357.582 399.435H350.094V397.787L353.918 393.851C354.771 392.944 355.198 392.197 355.198 391.611C355.198 391.173 355.059 390.821 354.782 390.555C354.515 390.288 354.169 390.155 353.742 390.155C352.889 390.155 352.265 390.592 351.87 391.467L350.014 390.379C350.355 389.621 350.851 389.04 351.502 388.635C352.163 388.219 352.899 388.011 353.71 388.011C354.723 388.011 355.593 388.331 356.318 388.971C357.043 389.6 357.406 390.453 357.406 391.531C357.406 392.693 356.793 393.888 355.566 395.115L353.374 397.307H357.582V399.435ZM361.506 398.283C361.506 398.656 361.373 398.976 361.106 399.243C360.839 399.509 360.519 399.643 360.146 399.643C359.773 399.643 359.453 399.509 359.186 399.243C358.919 398.976 358.786 398.656 358.786 398.283C358.786 397.909 358.919 397.589 359.186 397.323C359.453 397.056 359.773 396.923 360.146 396.923C360.519 396.923 360.839 397.056 361.106 397.323C361.373 397.589 361.506 397.909 361.506 398.283ZM362.299 389.275L365.243 388.235H367.163V399.435H364.955V390.571L362.843 391.163L362.299 389.275ZM371.479 392.315H372.631C373.719 392.315 374.625 392.64 375.351 393.291C376.087 393.931 376.455 394.827 376.455 395.979C376.455 397.131 376.065 398.032 375.287 398.683C374.529 399.333 373.585 399.659 372.455 399.659C371.537 399.659 370.732 399.456 370.039 399.051C369.356 398.635 368.86 398.037 368.551 397.259L370.439 396.155C370.705 397.051 371.377 397.499 372.455 397.499C373.02 397.499 373.457 397.365 373.767 397.099C374.087 396.821 374.247 396.448 374.247 395.979C374.247 395.52 374.092 395.152 373.783 394.875C373.473 394.597 373.052 394.459 372.519 394.459H369.127L369.575 388.235H375.927V390.299H371.623L371.479 392.315ZM381.788 392.539C381.265 393.04 380.625 393.291 379.868 393.291C379.1 393.291 378.454 393.035 377.932 392.523C377.42 392.011 377.164 391.387 377.164 390.651C377.164 389.915 377.42 389.291 377.932 388.779C378.465 388.267 379.11 388.011 379.868 388.011C380.636 388.011 381.276 388.267 381.788 388.779C382.3 389.269 382.556 389.893 382.556 390.651C382.556 391.397 382.3 392.027 381.788 392.539ZM379.26 398.299L378.3 397.739L385.596 389.627L386.572 390.171L379.26 398.299ZM379.132 391.387C379.324 391.579 379.564 391.675 379.852 391.675C380.14 391.675 380.38 391.579 380.572 391.387C380.764 391.184 380.86 390.939 380.86 390.651C380.86 390.363 380.764 390.123 380.572 389.931C380.38 389.739 380.14 389.643 379.852 389.643C379.564 389.643 379.324 389.739 379.132 389.931C378.95 390.123 378.86 390.363 378.86 390.651C378.86 390.939 378.95 391.184 379.132 391.387ZM387.964 396.987C387.964 397.723 387.708 398.347 387.196 398.859C386.684 399.371 386.044 399.627 385.276 399.627C384.508 399.627 383.868 399.371 383.356 398.859C382.844 398.347 382.588 397.723 382.588 396.987C382.588 396.251 382.844 395.627 383.356 395.115C383.868 394.603 384.508 394.347 385.276 394.347C386.044 394.347 386.684 394.603 387.196 395.115C387.708 395.627 387.964 396.251 387.964 396.987ZM385.98 397.723C386.172 397.52 386.268 397.275 386.268 396.987C386.268 396.699 386.172 396.459 385.98 396.267C385.798 396.064 385.564 395.963 385.276 395.963C384.988 395.963 384.748 396.064 384.556 396.267C384.374 396.459 384.284 396.699 384.284 396.987C384.284 397.275 384.374 397.52 384.556 397.723C384.748 397.915 384.988 398.011 385.276 398.011C385.564 398.011 385.798 397.915 385.98 397.723Z" fill="#E3DDD2"/>
<rect width="102.5" height="105" transform="translate(259 441.435)" fill="#142E2A"/>
<path d="M295.066 481.627C295.62 481.861 296.058 482.219 296.378 482.699C296.698 483.179 296.858 483.717 296.858 484.315C296.858 485.179 296.554 485.915 295.946 486.523C295.338 487.131 294.602 487.435 293.738 487.435H288.858V476.235H293.37C294.191 476.235 294.9 476.533 295.498 477.131C296.084 477.717 296.378 478.421 296.378 479.243C296.378 480.288 295.94 481.083 295.066 481.627ZM293.37 477.291H289.978V481.195H293.37C293.882 481.195 294.324 481.008 294.698 480.635C295.071 480.24 295.258 479.776 295.258 479.243C295.258 478.72 295.071 478.261 294.698 477.867C294.324 477.483 293.882 477.291 293.37 477.291ZM289.978 486.379H293.738C294.292 486.379 294.762 486.181 295.146 485.787C295.54 485.392 295.738 484.901 295.738 484.315C295.738 483.739 295.54 483.253 295.146 482.859C294.762 482.453 294.292 482.251 293.738 482.251H289.978V486.379ZM305.164 486.427C304.342 487.227 303.35 487.627 302.188 487.627C301.004 487.627 300.006 487.227 299.196 486.427C298.385 485.616 297.98 484.619 297.98 483.435C297.98 482.251 298.385 481.259 299.196 480.459C300.006 479.648 301.004 479.243 302.188 479.243C303.361 479.243 304.353 479.648 305.164 480.459C305.985 481.259 306.396 482.251 306.396 483.435C306.396 484.608 305.985 485.605 305.164 486.427ZM299.948 485.691C300.556 486.299 301.302 486.603 302.188 486.603C303.073 486.603 303.82 486.299 304.428 485.691C305.036 485.061 305.34 484.309 305.34 483.435C305.34 482.549 305.036 481.803 304.428 481.195C303.82 480.576 303.073 480.267 302.188 480.267C301.302 480.267 300.556 480.576 299.948 481.195C299.34 481.803 299.036 482.549 299.036 483.435C299.036 484.309 299.34 485.061 299.948 485.691ZM311.747 479.243C312.707 479.243 313.469 479.541 314.035 480.139C314.6 480.725 314.883 481.52 314.883 482.523V487.435H313.827V482.523C313.827 481.808 313.635 481.253 313.251 480.859C312.877 480.464 312.344 480.267 311.651 480.267C310.851 480.267 310.216 480.517 309.747 481.019C309.288 481.52 309.059 482.261 309.059 483.243V487.435H308.003V479.435H309.059V480.683C309.656 479.723 310.552 479.243 311.747 479.243ZM323.645 481.003V476.235H324.701V487.435H323.645V485.867C322.909 487.04 321.831 487.627 320.413 487.627C319.271 487.627 318.295 487.221 317.485 486.411C316.685 485.6 316.285 484.608 316.285 483.435C316.285 482.261 316.685 481.269 317.485 480.459C318.295 479.648 319.271 479.243 320.413 479.243C321.831 479.243 322.909 479.829 323.645 481.003ZM318.253 485.691C318.861 486.299 319.607 486.603 320.493 486.603C321.378 486.603 322.125 486.299 322.733 485.691C323.341 485.061 323.645 484.309 323.645 483.435C323.645 482.549 323.341 481.803 322.733 481.195C322.125 480.576 321.378 480.267 320.493 480.267C319.607 480.267 318.861 480.576 318.253 481.195C317.645 481.803 317.341 482.549 317.341 483.435C317.341 484.309 317.645 485.061 318.253 485.691ZM327.609 481.531C327.609 482.149 328.158 482.603 329.257 482.891C329.566 482.965 329.769 483.019 329.865 483.051C329.961 483.072 330.147 483.131 330.425 483.227C330.713 483.312 330.91 483.387 331.017 483.451C331.134 483.515 331.294 483.616 331.497 483.755C331.699 483.883 331.843 484.016 331.929 484.155C332.014 484.283 332.094 484.453 332.169 484.667C332.243 484.869 332.281 485.088 332.281 485.323C332.281 486.005 332.009 486.56 331.465 486.987C330.942 487.413 330.249 487.627 329.385 487.627C328.638 487.627 327.993 487.461 327.449 487.131C326.905 486.789 326.521 486.341 326.297 485.787L327.193 485.259C327.342 485.675 327.609 486.005 327.993 486.251C328.387 486.485 328.851 486.603 329.385 486.603C329.929 486.603 330.371 486.496 330.713 486.283C331.054 486.069 331.225 485.749 331.225 485.323C331.225 484.704 330.675 484.251 329.577 483.963C329.267 483.888 329.065 483.84 328.969 483.819C328.873 483.787 328.681 483.728 328.393 483.643C328.115 483.547 327.918 483.467 327.801 483.403C327.694 483.339 327.539 483.243 327.337 483.115C327.134 482.976 326.99 482.843 326.905 482.715C326.819 482.576 326.739 482.405 326.665 482.203C326.59 481.989 326.553 481.765 326.553 481.531C326.553 480.88 326.809 480.336 327.321 479.899C327.854 479.461 328.51 479.243 329.289 479.243C329.929 479.243 330.494 479.387 330.985 479.675C331.486 479.963 331.854 480.363 332.089 480.875L331.209 481.387C330.91 480.64 330.27 480.267 329.289 480.267C328.809 480.267 328.409 480.379 328.089 480.603C327.769 480.827 327.609 481.136 327.609 481.531Z" fill="#E3DDD2"/>
<path d="M286.357 499.275L289.301 498.235H291.221V509.435H289.013V500.571L286.901 501.163L286.357 499.275ZM300.129 509.435H292.641V507.787L296.465 503.851C297.318 502.944 297.745 502.197 297.745 501.611C297.745 501.173 297.606 500.821 297.329 500.555C297.062 500.288 296.715 500.155 296.289 500.155C295.435 500.155 294.811 500.592 294.417 501.467L292.561 500.379C292.902 499.621 293.398 499.04 294.049 498.635C294.71 498.219 295.446 498.011 296.257 498.011C297.27 498.011 298.139 498.331 298.865 498.971C299.59 499.6 299.953 500.453 299.953 501.531C299.953 502.693 299.339 503.888 298.113 505.115L295.921 507.307H300.129V509.435ZM304.053 508.283C304.053 508.656 303.919 508.976 303.653 509.243C303.386 509.509 303.066 509.643 302.693 509.643C302.319 509.643 301.999 509.509 301.733 509.243C301.466 508.976 301.333 508.656 301.333 508.283C301.333 507.909 301.466 507.589 301.733 507.323C301.999 507.056 302.319 506.923 302.693 506.923C303.066 506.923 303.386 507.056 303.653 507.323C303.919 507.589 304.053 507.909 304.053 508.283ZM312.526 505.483H313.726V507.531H312.526V509.435H310.302V507.531H305.006V505.483L308.734 498.235H311.102L307.39 505.483H310.302V502.827H312.526V505.483ZM317.119 502.315H318.271C319.359 502.315 320.266 502.64 320.991 503.291C321.727 503.931 322.095 504.827 322.095 505.979C322.095 507.131 321.706 508.032 320.927 508.683C320.17 509.333 319.226 509.659 318.095 509.659C317.178 509.659 316.373 509.456 315.679 509.051C314.997 508.635 314.501 508.037 314.191 507.259L316.079 506.155C316.346 507.051 317.018 507.499 318.095 507.499C318.661 507.499 319.098 507.365 319.407 507.099C319.727 506.821 319.887 506.448 319.887 505.979C319.887 505.52 319.733 505.152 319.423 504.875C319.114 504.597 318.693 504.459 318.159 504.459H314.767L315.215 498.235H321.567V500.299H317.263L317.119 502.315ZM327.428 502.539C326.906 503.04 326.266 503.291 325.508 503.291C324.74 503.291 324.095 503.035 323.572 502.523C323.06 502.011 322.804 501.387 322.804 500.651C322.804 499.915 323.06 499.291 323.572 498.779C324.106 498.267 324.751 498.011 325.508 498.011C326.276 498.011 326.916 498.267 327.428 498.779C327.94 499.269 328.196 499.893 328.196 500.651C328.196 501.397 327.94 502.027 327.428 502.539ZM324.9 508.299L323.94 507.739L331.236 499.627L332.212 500.171L324.9 508.299ZM324.772 501.387C324.964 501.579 325.204 501.675 325.492 501.675C325.78 501.675 326.02 501.579 326.212 501.387C326.404 501.184 326.5 500.939 326.5 500.651C326.5 500.363 326.404 500.123 326.212 499.931C326.02 499.739 325.78 499.643 325.492 499.643C325.204 499.643 324.964 499.739 324.772 499.931C324.591 500.123 324.5 500.363 324.5 500.651C324.5 500.939 324.591 501.184 324.772 501.387ZM333.604 506.987C333.604 507.723 333.348 508.347 332.836 508.859C332.324 509.371 331.684 509.627 330.916 509.627C330.148 509.627 329.508 509.371 328.996 508.859C328.484 508.347 328.228 507.723 328.228 506.987C328.228 506.251 328.484 505.627 328.996 505.115C329.508 504.603 330.148 504.347 330.916 504.347C331.684 504.347 332.324 504.603 332.836 505.115C333.348 505.627 333.604 506.251 333.604 506.987ZM331.62 507.723C331.812 507.52 331.908 507.275 331.908 506.987C331.908 506.699 331.812 506.459 331.62 506.267C331.439 506.064 331.204 505.963 330.916 505.963C330.628 505.963 330.388 506.064 330.196 506.267C330.015 506.459 329.924 506.699 329.924 506.987C329.924 507.275 330.015 507.52 330.196 507.723C330.388 507.915 330.628 508.011 330.916 508.011C331.204 508.011 331.439 507.915 331.62 507.723Z" fill="#E3DDD2"/>
<rect width="102.5" height="105" transform="translate(368.5 441.435)" fill="#142E2A"/>
<path d="M402.602 477.935H401.45L397.322 466.735H398.538L402.026 476.447L405.514 466.735H406.73L402.602 477.935ZM408.839 467.471C408.839 467.684 408.765 467.865 408.615 468.015C408.466 468.164 408.285 468.239 408.071 468.239C407.858 468.239 407.677 468.164 407.527 468.015C407.378 467.865 407.303 467.684 407.303 467.471C407.303 467.257 407.378 467.076 407.527 466.927C407.677 466.777 407.858 466.703 408.071 466.703C408.285 466.703 408.466 466.777 408.615 466.927C408.765 467.076 408.839 467.257 408.839 467.471ZM408.599 477.935H407.543V469.935H408.599V477.935ZM411.736 469.935V471.263C412.227 470.292 413.07 469.807 414.264 469.807V470.831C413.496 470.831 412.883 471.055 412.424 471.503C411.966 471.94 411.736 472.601 411.736 473.487V477.935H410.68V469.935H411.736ZM419.948 469.935V470.959H417.644V475.807C417.644 476.244 417.729 476.559 417.9 476.751C418.07 476.932 418.326 477.028 418.668 477.039C419.009 477.039 419.436 477.028 419.948 477.007V477.935C418.806 478.105 417.958 478.025 417.404 477.695C416.86 477.353 416.588 476.724 416.588 475.807V470.959H414.908V469.935H416.588V468.015L417.644 467.695V469.935H419.948ZM427.18 474.127V469.935H428.236V477.935H427.18V476.687C426.582 477.647 425.686 478.127 424.492 478.127C423.532 478.127 422.769 477.833 422.204 477.247C421.638 476.649 421.356 475.849 421.356 474.847V469.935H422.412V474.847C422.412 475.561 422.598 476.116 422.972 476.511C423.356 476.905 423.894 477.103 424.588 477.103C425.388 477.103 426.017 476.852 426.476 476.351C426.945 475.849 427.18 475.108 427.18 474.127ZM437.19 471.503V469.935H438.246V477.935H437.19V476.367C436.454 477.54 435.376 478.127 433.958 478.127C432.816 478.127 431.84 477.721 431.03 476.911C430.23 476.1 429.83 475.108 429.83 473.935C429.83 472.761 430.23 471.769 431.03 470.959C431.84 470.148 432.816 469.743 433.958 469.743C435.376 469.743 436.454 470.329 437.19 471.503ZM431.798 476.191C432.406 476.799 433.152 477.103 434.038 477.103C434.923 477.103 435.67 476.799 436.278 476.191C436.886 475.561 437.19 474.809 437.19 473.935C437.19 473.049 436.886 472.303 436.278 471.695C435.67 471.076 434.923 470.767 434.038 470.767C433.152 470.767 432.406 471.076 431.798 471.695C431.19 472.303 430.886 473.049 430.886 473.935C430.886 474.809 431.19 475.561 431.798 476.191ZM441.378 477.935H440.322V466.255H441.378V477.935ZM407.218 496.935H406.034L404.994 494.183H399.682L398.642 496.935H397.458L401.762 485.735H402.914L407.218 496.935ZM402.338 487.127L400.082 493.127H404.594L402.338 487.127ZM409.09 491.031C409.09 491.649 409.64 492.103 410.738 492.391C411.048 492.465 411.25 492.519 411.346 492.551C411.442 492.572 411.629 492.631 411.906 492.727C412.194 492.812 412.392 492.887 412.498 492.951C412.616 493.015 412.776 493.116 412.978 493.255C413.181 493.383 413.325 493.516 413.41 493.655C413.496 493.783 413.576 493.953 413.65 494.167C413.725 494.369 413.762 494.588 413.762 494.823C413.762 495.505 413.49 496.06 412.946 496.487C412.424 496.913 411.73 497.127 410.866 497.127C410.12 497.127 409.474 496.961 408.93 496.631C408.386 496.289 408.002 495.841 407.778 495.287L408.674 494.759C408.824 495.175 409.09 495.505 409.474 495.751C409.869 495.985 410.333 496.103 410.866 496.103C411.41 496.103 411.853 495.996 412.194 495.783C412.536 495.569 412.706 495.249 412.706 494.823C412.706 494.204 412.157 493.751 411.058 493.463C410.749 493.388 410.546 493.34 410.45 493.319C410.354 493.287 410.162 493.228 409.874 493.143C409.597 493.047 409.4 492.967 409.282 492.903C409.176 492.839 409.021 492.743 408.818 492.615C408.616 492.476 408.472 492.343 408.386 492.215C408.301 492.076 408.221 491.905 408.146 491.703C408.072 491.489 408.034 491.265 408.034 491.031C408.034 490.38 408.29 489.836 408.802 489.399C409.336 488.961 409.992 488.743 410.77 488.743C411.41 488.743 411.976 488.887 412.466 489.175C412.968 489.463 413.336 489.863 413.57 490.375L412.69 490.887C412.392 490.14 411.752 489.767 410.77 489.767C410.29 489.767 409.89 489.879 409.57 490.103C409.25 490.327 409.09 490.636 409.09 491.031ZM415.712 491.031C415.712 491.649 416.261 492.103 417.36 492.391C417.669 492.465 417.872 492.519 417.968 492.551C418.064 492.572 418.25 492.631 418.528 492.727C418.816 492.812 419.013 492.887 419.12 492.951C419.237 493.015 419.397 493.116 419.6 493.255C419.802 493.383 419.946 493.516 420.032 493.655C420.117 493.783 420.197 493.953 420.272 494.167C420.346 494.369 420.384 494.588 420.384 494.823C420.384 495.505 420.112 496.06 419.568 496.487C419.045 496.913 418.352 497.127 417.488 497.127C416.741 497.127 416.096 496.961 415.552 496.631C415.008 496.289 414.624 495.841 414.4 495.287L415.296 494.759C415.445 495.175 415.712 495.505 416.096 495.751C416.49 495.985 416.954 496.103 417.488 496.103C418.032 496.103 418.474 495.996 418.816 495.783C419.157 495.569 419.328 495.249 419.328 494.823C419.328 494.204 418.778 493.751 417.68 493.463C417.37 493.388 417.168 493.34 417.072 493.319C416.976 493.287 416.784 493.228 416.496 493.143C416.218 493.047 416.021 492.967 415.904 492.903C415.797 492.839 415.642 492.743 415.44 492.615C415.237 492.476 415.093 492.343 415.008 492.215C414.922 492.076 414.842 491.905 414.768 491.703C414.693 491.489 414.656 491.265 414.656 491.031C414.656 490.38 414.912 489.836 415.424 489.399C415.957 488.961 416.613 488.743 417.392 488.743C418.032 488.743 418.597 488.887 419.088 489.175C419.589 489.463 419.957 489.863 420.192 490.375L419.312 490.887C419.013 490.14 418.373 489.767 417.392 489.767C416.912 489.767 416.512 489.879 416.192 490.103C415.872 490.327 415.712 490.636 415.712 491.031ZM425.447 488.743C426.642 488.743 427.596 489.164 428.311 490.007C429.047 490.839 429.415 491.825 429.415 492.967C429.415 493.02 429.404 493.185 429.383 493.463H422.359C422.466 494.263 422.807 494.903 423.383 495.383C423.959 495.863 424.679 496.103 425.543 496.103C426.759 496.103 427.618 495.649 428.119 494.743L429.047 495.287C428.695 495.863 428.21 496.316 427.591 496.647C426.983 496.967 426.295 497.127 425.527 497.127C424.268 497.127 423.244 496.732 422.455 495.943C421.666 495.153 421.271 494.151 421.271 492.935C421.271 491.729 421.66 490.732 422.439 489.943C423.218 489.143 424.22 488.743 425.447 488.743ZM425.447 489.767C424.615 489.767 423.916 490.012 423.351 490.503C422.796 490.993 422.466 491.639 422.359 492.439H428.327C428.21 491.585 427.884 490.929 427.351 490.471C426.796 490.001 426.162 489.767 425.447 489.767ZM434.94 488.935V489.959H432.636V494.807C432.636 495.244 432.722 495.559 432.892 495.751C433.063 495.932 433.319 496.028 433.66 496.039C434.002 496.039 434.428 496.028 434.94 496.007V496.935C433.799 497.105 432.951 497.025 432.396 496.695C431.852 496.353 431.58 495.724 431.58 494.807V489.959H429.9V488.935H431.58V487.015L432.636 486.695V488.935H434.94ZM436.888 491.031C436.888 491.649 437.437 492.103 438.536 492.391C438.845 492.465 439.048 492.519 439.144 492.551C439.24 492.572 439.427 492.631 439.704 492.727C439.992 492.812 440.189 492.887 440.296 492.951C440.413 493.015 440.573 493.116 440.776 493.255C440.979 493.383 441.123 493.516 441.208 493.655C441.293 493.783 441.373 493.953 441.448 494.167C441.523 494.369 441.56 494.588 441.56 494.823C441.56 495.505 441.288 496.06 440.744 496.487C440.221 496.913 439.528 497.127 438.664 497.127C437.917 497.127 437.272 496.961 436.728 496.631C436.184 496.289 435.8 495.841 435.576 495.287L436.472 494.759C436.621 495.175 436.888 495.505 437.272 495.751C437.667 495.985 438.131 496.103 438.664 496.103C439.208 496.103 439.651 495.996 439.992 495.783C440.333 495.569 440.504 495.249 440.504 494.823C440.504 494.204 439.955 493.751 438.856 493.463C438.547 493.388 438.344 493.34 438.248 493.319C438.152 493.287 437.96 493.228 437.672 493.143C437.395 493.047 437.197 492.967 437.08 492.903C436.973 492.839 436.819 492.743 436.616 492.615C436.413 492.476 436.269 492.343 436.184 492.215C436.099 492.076 436.019 491.905 435.944 491.703C435.869 491.489 435.832 491.265 435.832 491.031C435.832 490.38 436.088 489.836 436.6 489.399C437.133 488.961 437.789 488.743 438.568 488.743C439.208 488.743 439.773 488.887 440.264 489.175C440.765 489.463 441.133 489.863 441.368 490.375L440.488 490.887C440.189 490.14 439.549 489.767 438.568 489.767C438.088 489.767 437.688 489.879 437.368 490.103C437.048 490.327 436.888 490.636 436.888 491.031Z" fill="#E3DDD2"/>
<path d="M399.693 508.775L402.637 507.735H404.557V518.935H402.349V510.071L400.237 510.663L399.693 508.775ZM405.721 508.775L408.665 507.735H410.585V518.935H408.377V510.071L406.265 510.663L405.721 508.775ZM415.076 517.783C415.076 518.156 414.943 518.476 414.676 518.743C414.41 519.009 414.09 519.143 413.716 519.143C413.343 519.143 413.023 519.009 412.756 518.743C412.49 518.476 412.356 518.156 412.356 517.783C412.356 517.409 412.49 517.089 412.756 516.823C413.023 516.556 413.343 516.423 413.716 516.423C414.09 516.423 414.41 516.556 414.676 516.823C414.943 517.089 415.076 517.409 415.076 517.783ZM415.869 508.775L418.813 507.735H420.733V518.935H418.525V510.071L416.413 510.663L415.869 508.775ZM421.897 508.775L424.841 507.735H426.761V518.935H424.553V510.071L422.441 510.663L421.897 508.775ZM433.092 512.039C432.57 512.54 431.93 512.791 431.172 512.791C430.404 512.791 429.759 512.535 429.236 512.023C428.724 511.511 428.468 510.887 428.468 510.151C428.468 509.415 428.724 508.791 429.236 508.279C429.77 507.767 430.415 507.511 431.172 507.511C431.94 507.511 432.58 507.767 433.092 508.279C433.604 508.769 433.86 509.393 433.86 510.151C433.86 510.897 433.604 511.527 433.092 512.039ZM430.564 517.799L429.604 517.239L436.9 509.127L437.876 509.671L430.564 517.799ZM430.436 510.887C430.628 511.079 430.868 511.175 431.156 511.175C431.444 511.175 431.684 511.079 431.876 510.887C432.068 510.684 432.164 510.439 432.164 510.151C432.164 509.863 432.068 509.623 431.876 509.431C431.684 509.239 431.444 509.143 431.156 509.143C430.868 509.143 430.628 509.239 430.436 509.431C430.255 509.623 430.164 509.863 430.164 510.151C430.164 510.439 430.255 510.684 430.436 510.887ZM439.268 516.487C439.268 517.223 439.012 517.847 438.5 518.359C437.988 518.871 437.348 519.127 436.58 519.127C435.812 519.127 435.172 518.871 434.66 518.359C434.148 517.847 433.892 517.223 433.892 516.487C433.892 515.751 434.148 515.127 434.66 514.615C435.172 514.103 435.812 513.847 436.58 513.847C437.348 513.847 437.988 514.103 438.5 514.615C439.012 515.127 439.268 515.751 439.268 516.487ZM437.284 517.223C437.476 517.02 437.572 516.775 437.572 516.487C437.572 516.199 437.476 515.959 437.284 515.767C437.103 515.564 436.868 515.463 436.58 515.463C436.292 515.463 436.052 515.564 435.86 515.767C435.679 515.959 435.588 516.199 435.588 516.487C435.588 516.775 435.679 517.02 435.86 517.223C436.052 517.415 436.292 517.511 436.58 517.511C436.868 517.511 437.103 517.415 437.284 517.223Z" fill="#E3DDD2"/>
</g>
<path d="M1 1H525V515H1V1Z" stroke="url(#paint2_linear_877_1263)" stroke-width="2"/>
<defs>
<linearGradient id="paint0_linear_877_1263" x1="245.017" y1="257.848" x2="243.018" y2="227.073" gradientUnits="userSpaceOnUse">
<stop offset="0.115248" stop-color="#54B342" stop-opacity="0"/>
<stop offset="1" stop-color="#54B342" stop-opacity="0.3"/>
</linearGradient>
<linearGradient id="paint1_linear_877_1263" x1="589.577" y1="266.544" x2="588.514" y2="235.675" gradientUnits="userSpaceOnUse">
<stop offset="0.115248" stop-color="#54B342" stop-opacity="0"/>
<stop offset="1" stop-color="#54B342" stop-opacity="0.3"/>
</linearGradient>
<linearGradient id="paint2_linear_877_1263" x1="526" y1="-6.14288" x2="-85.5926" y2="392.291" gradientUnits="userSpaceOnUse">
<stop stop-color="#CDE1C3"/>
<stop offset="1" stop-color="#E0E0E0"/>
</linearGradient>
<clipPath id="clip0_877_1263">
<path d="M0 0H526V516H0V0Z" fill="white"/>
</clipPath>
<clipPath id="clip1_877_1263">
<rect width="280.435" height="205.435" fill="white" transform="translate(41 62)"/>
</clipPath>
<clipPath id="clip2_877_1263">
<rect width="26.087" height="26.087" fill="white" transform="translate(58.3906 183.761)"/>
</clipPath>
<clipPath id="clip3_877_1263">
<rect width="280.435" height="205.435" fill="white" transform="translate(335.564 61.9999)"/>
</clipPath>
<clipPath id="clip4_877_1263">
<rect width="26.087" height="26.087" fill="white" transform="translate(352.955 183.761)"/>
</clipPath>
</defs>
</svg>
