<svg width="238" height="65" viewBox="0 0 238 65" fill="none" xmlns="http://www.w3.org/2000/svg">
<g clip-path="url(#clip0_897_3328)">
<path fill-rule="evenodd" clip-rule="evenodd" d="M115.042 20.3468L117.2 26.1895H122.127L112.417 1.09833H107.958L98.2844 26.1895H103.175L105.333 20.3468H115.042ZM113.604 16.3322H106.843L110.224 7.15605L113.604 16.3322Z" fill="black"/>
<path fill-rule="evenodd" clip-rule="evenodd" d="M124.565 8.12397V33.5019H128.952V24.2182C129.959 25.6161 131.901 26.4763 134.094 26.4763C139.417 26.4763 142.833 22.6768 142.833 17.1567C142.833 11.6367 139.632 7.83722 134.418 7.83722C132.009 7.83722 130.031 8.84087 128.952 10.3822V8.12397H124.565ZM138.446 17.1567C138.446 20.4903 136.504 22.6768 133.591 22.6768C130.606 22.6768 128.664 20.4903 128.664 17.1567C128.664 13.8232 130.606 11.6367 133.591 11.6367C136.504 11.6367 138.446 13.8232 138.446 17.1567Z" fill="black"/>
<path fill-rule="evenodd" clip-rule="evenodd" d="M162.599 20.1678H158.284C157.817 21.8883 156.341 22.8202 154.076 22.8202C151.271 22.8202 149.401 20.9563 149.077 18.0529H162.455C162.49 17.6945 162.527 17.1567 162.527 16.5475C162.527 12.2461 159.793 7.83722 153.716 7.83722C147.783 7.83722 144.834 12.3178 144.834 17.0851C144.834 21.8165 148.142 26.4763 154.076 26.4763C158.535 26.4763 161.916 24.003 162.599 20.1678ZM149.185 15.1495C149.653 12.4253 151.235 11.1349 153.716 11.1349C156.341 11.1349 157.924 12.8554 158.104 15.1495H149.185Z" fill="black"/>
<path d="M106.015 41.7067V62.7117H110.762V41.7067H118.35V37.6204H98.3914V41.7067H106.015Z" fill="black"/>
<path fill-rule="evenodd" clip-rule="evenodd" d="M134.151 56.6897H129.836C129.368 58.4102 127.894 59.3422 125.628 59.3422C122.823 59.3422 120.953 57.4783 120.63 54.5749H134.008C134.043 54.2164 134.079 53.6788 134.079 53.0694C134.079 48.7681 131.346 44.3592 125.269 44.3592C119.335 44.3592 116.386 48.8397 116.386 53.607C116.386 58.3386 119.695 62.9984 125.628 62.9984C130.088 62.9984 133.468 60.5251 134.151 56.6897ZM120.738 51.6715C121.205 48.9472 122.788 47.6568 125.269 47.6568C127.894 47.6568 129.476 49.3774 129.656 51.6715H120.738Z" fill="black"/>
<path d="M145.472 48.3379H148.313V44.6461H146.191C143.854 44.6461 142.451 45.5422 141.552 47.8362V44.6461H137.129V62.7117H141.552V54.1806C141.552 50.7396 142.667 48.3379 145.472 48.3379Z" fill="black"/>
<path d="M150.862 44.6459V62.7116H155.286V52.3525C155.286 49.8075 156.76 48.1228 159.097 48.1228C161.219 48.1228 162.549 49.8075 162.549 52.3525V62.7116H166.936V52.3525C166.936 49.8075 168.411 48.1228 170.784 48.1228C172.907 48.1228 174.237 49.8075 174.237 52.3525V62.7116H178.623V51.0263C178.623 47.1908 176.106 44.3592 172.187 44.3592C169.31 44.3592 167.009 45.9363 166.182 47.8002C165.39 45.5778 163.412 44.3592 160.535 44.3592C157.982 44.3592 156.184 45.6496 155.286 47.4776V44.6459H150.862Z" fill="black"/>
<path d="M187.143 36.9036H182.396V41.8142H187.143V36.9036Z" fill="black"/>
<path d="M182.575 44.6461V62.7117H186.999V44.6461H182.575Z" fill="black"/>
<path d="M190.965 44.6459V62.7116H195.389V52.8543C195.389 50.2019 197.115 48.2662 199.596 48.2662C201.862 48.2662 203.371 49.9867 203.371 52.46V62.7116H207.795V51.5281C207.795 47.2985 205.134 44.3592 201.034 44.3592C198.445 44.3592 196.395 45.4703 195.389 47.4419V44.6459H190.965Z" fill="black"/>
<path fill-rule="evenodd" clip-rule="evenodd" d="M211.039 53.6788C211.039 59.1988 214.203 62.9984 219.67 62.9984C221.935 62.9984 224.021 62.0305 224.883 60.5967V62.7116H229.307V44.6459H224.883V46.6891C223.841 45.2911 221.862 44.3592 219.597 44.3592C214.203 44.3592 211.039 48.1587 211.039 53.6788ZM225.208 53.6788C225.208 57.0123 223.265 59.1988 220.281 59.1988C217.368 59.1988 215.426 57.0123 215.426 53.6788C215.426 50.3453 217.368 48.1587 220.281 48.1587C223.265 48.1587 225.208 50.3453 225.208 53.6788Z" fill="black"/>
<path d="M233.781 36.9036V62.7117H238.169V36.9036H233.781Z" fill="black"/>
<path fill-rule="evenodd" clip-rule="evenodd" d="M40.6357 29.2148H22.9696L25.3538 22.2548L43.0194 22.2567L40.6357 29.2148Z" fill="#63EA71"/>
<path fill-rule="evenodd" clip-rule="evenodd" d="M20.4213 36.6388H38.0875L40.6308 29.2148H22.9647L20.4213 36.6388Z" fill="#27B079"/>
<path fill-rule="evenodd" clip-rule="evenodd" d="M38.0858 36.6392L35.7015 43.5992H18.0353L20.4196 36.6392H38.0858Z" fill="#08493C"/>
<path d="M10.7249 64.9432H28.3911L35.703 43.5992H18.0368L10.7249 64.9432Z" fill="black"/>
<path d="M0.372864 43.5988H18.039L25.351 22.2548H7.68481L0.372864 43.5988Z" fill="black"/>
<path d="M43.0179 22.2569L25.3524 22.2551L32.6643 0.911072H53.3716L75.3073 64.9431H57.6412L50.3293 43.5991H35.7066L43.0179 22.2569Z" fill="black"/>
</g>
<defs>
<clipPath id="clip0_897_3328">
<rect width="238" height="64" fill="white" transform="translate(0 0.53772)"/>
</clipPath>
</defs>
</svg>
