<svg width="372" height="48" viewBox="0 0 372 48" fill="none" xmlns="http://www.w3.org/2000/svg">
<g clip-path="url(#clip0_897_3347)">
<path d="M79.6436 42.5284C76.5334 45.6824 72.3255 47.2284 67.0809 47.2284C61.8363 47.2284 57.6285 45.6824 54.5183 42.5284C51.3472 39.3745 49.8226 35.3548 49.8226 30.4692C49.8226 25.5837 51.4081 21.564 54.5183 18.41C57.6895 15.2561 61.8363 13.71 67.0809 13.71C72.3255 13.71 76.5334 15.2561 79.6436 18.41C82.7537 21.564 84.3393 25.5837 84.3393 30.4692C84.3393 35.3548 82.7537 39.3745 79.6436 42.5284ZM67.0809 38.6942C69.3373 38.6942 71.1668 37.9521 72.5085 36.4061C73.8501 34.86 74.5209 32.8811 74.5209 30.4692C74.5209 27.9955 73.8501 26.0166 72.5085 24.4706C71.1668 22.9245 69.3373 22.1824 67.0809 22.1824C64.7636 22.1824 62.9341 22.9245 61.6534 24.4706C60.3727 26.0166 59.7019 27.9955 59.7019 30.4692C59.7019 32.9429 60.3727 34.9219 61.6534 36.4679C62.9341 37.9521 64.7636 38.6942 67.0809 38.6942ZM88.7911 46.3008V0.290283H98.6704V46.3008H88.7911ZM136.175 46.3008H124.101L114.221 32.5719V46.3008H104.342V0.290283H114.221V27.81L124.345 14.6376H135.992L123.613 29.6034L136.175 46.3008Z" fill="black"/>
<path d="M150.263 47.1667C145.751 47.1667 142.153 45.6206 139.53 42.4667C136.908 39.3127 135.566 35.3548 135.566 30.4693C135.566 25.6456 136.908 21.6877 139.652 18.5338C142.335 15.3798 145.934 13.8338 150.385 13.8338C152.459 13.8338 154.471 14.3285 156.24 15.2561C157.886 16.1838 159.228 17.5443 160.143 19.214V14.6996H169.961V46.3009H160.143V41.8482C159.289 43.3943 157.947 44.693 156.179 45.6825C154.349 46.6719 152.337 47.1667 150.263 47.1667ZM153.13 38.818C155.508 38.818 157.337 38.014 158.618 36.468C159.96 34.9219 160.57 32.8811 160.57 30.4693C160.57 28.1193 159.899 26.1403 158.618 24.5943C157.337 23.0482 155.508 22.2443 153.13 22.2443C150.873 22.2443 149.105 22.9864 147.763 24.5324C146.421 26.0785 145.69 28.0575 145.69 30.4693C145.69 32.943 146.36 34.9219 147.763 36.468C149.044 38.014 150.873 38.818 153.13 38.818ZM188.988 47.2904C184.536 47.2904 180.938 46.3009 178.255 44.3219C175.572 42.343 174.23 39.8075 174.23 36.7772H184.048C184.048 37.8904 184.536 38.7561 185.451 39.4982C186.427 40.1785 187.646 40.5496 189.11 40.5496C190.208 40.5496 191.061 40.3022 191.732 39.7456C192.403 39.2509 192.769 38.4469 192.769 37.5811C192.769 36.1588 192.037 35.2311 190.513 34.8601L182.89 32.8811C180.328 32.2009 178.438 31.0877 177.096 29.5417C175.754 27.9338 175.084 26.0167 175.084 23.7904C175.084 20.8219 176.303 18.4101 178.682 16.5548C181.06 14.6996 184.353 13.7719 188.378 13.7719C192.83 13.7719 196.306 14.6377 198.684 16.3693C201.063 18.1009 202.282 20.5746 202.282 23.6048H192.525C192.586 22.6153 192.159 21.6877 191.366 21.0075C190.634 20.389 189.598 20.0798 188.256 20.0798C187.158 20.0798 186.305 20.3272 185.695 20.8219C185.085 21.2548 184.719 21.9351 184.719 22.739C184.719 24.1614 185.573 25.089 187.341 25.5838L194.72 27.6246C197.16 28.3048 199.111 29.3561 200.514 30.9022C201.916 32.3864 202.648 34.3654 202.587 36.468C202.587 39.7456 201.368 42.4048 198.928 44.3838C196.55 46.239 193.196 47.2904 188.988 47.2904ZM221.309 38.4469C222.468 38.4469 223.627 38.3851 224.724 38.2614V46.239C222.529 46.6101 220.334 46.7956 218.138 46.7338C217.162 46.7338 216.126 46.6719 215.15 46.5482C214.174 46.3627 213.198 46.0535 212.223 45.6825C211.186 45.2496 210.332 44.6311 209.6 43.8272C208.93 43.0232 208.32 41.9101 207.832 40.4259C207.283 38.7561 207.039 36.9627 207.1 35.1693V0.53772H216.979V14.6996H223.993V22.6772H216.979V33.1903C216.979 35.3548 217.345 36.7772 218.077 37.5193C218.809 38.1377 219.907 38.5088 221.309 38.4469ZM242.714 47.1667C238.202 47.1667 234.604 45.6206 231.981 42.4667C229.359 39.3746 228.017 35.3548 228.017 30.4693C228.017 25.6456 229.359 21.6877 232.103 18.5338C234.848 15.3798 238.385 13.8338 242.836 13.8338C244.91 13.7719 246.922 14.2667 248.691 15.2561C250.337 16.1219 251.679 17.5443 252.533 19.214V14.6996H262.351V46.3009H252.533V41.8482C251.679 43.3943 250.337 44.693 248.569 45.6825C246.8 46.6719 244.788 47.1667 242.714 47.1667ZM245.581 38.818C247.959 38.818 249.789 38.014 251.069 36.468C252.35 34.9219 253.021 32.8811 253.021 30.4693C253.021 28.1193 252.35 26.1403 251.069 24.5943C249.789 23.0482 247.959 22.2443 245.581 22.2443C243.324 22.2443 241.556 22.9864 240.214 24.5324C238.873 26.0785 238.141 28.0575 238.141 30.4693C238.141 32.943 238.812 34.9219 240.214 36.468C241.495 38.014 243.324 38.818 245.581 38.818ZM266.864 46.3009V14.6377H276.743V21.2548C277.231 18.9667 278.329 17.2351 279.975 15.9982C281.5 14.7614 283.391 14.143 285.342 14.143C286.196 14.143 287.111 14.2048 287.903 14.3903V23.7285C286.928 23.6048 285.952 23.543 284.915 23.543C279.427 23.543 276.743 27.068 276.743 34.118V46.3627C276.743 46.239 266.864 46.3009 266.864 46.3009ZM306.686 38.4469C307.845 38.4469 309.004 38.3851 310.101 38.2614V46.239C307.906 46.6101 305.711 46.7956 303.515 46.7338C302.539 46.7338 301.503 46.6719 300.527 46.5482C299.551 46.3627 298.575 46.0535 297.6 45.6825C296.563 45.2496 295.709 44.6311 294.977 43.8272C294.307 43.0232 293.697 41.9101 293.209 40.4259C292.66 38.7561 292.416 36.9627 292.477 35.1693V0.53772H302.356V14.6996H309.37V22.6772H302.356V33.1903C302.356 35.3548 302.722 36.7772 303.454 37.5193C304.186 38.1377 305.284 38.5088 306.686 38.4469ZM346.448 28.7996C346.448 30.2838 346.326 31.768 346.204 33.1903H323.213C323.274 35.2311 324.006 36.839 325.286 38.014C326.567 39.189 328.335 39.7456 330.531 39.6838C333.519 39.6838 335.471 38.6943 336.324 36.7154H346.021C345.533 39.8075 343.886 42.343 341.02 44.3219C338.154 46.3009 334.678 47.2285 330.531 47.2285C325.225 47.2285 321.078 45.7443 317.968 42.7759C314.919 39.8074 313.395 35.664 313.395 30.4074C313.395 25.2746 314.919 21.193 317.968 18.1627C321.017 15.1325 325.103 13.6483 330.165 13.6483C334.983 13.6483 338.886 15.0706 341.935 17.8535C344.923 20.6982 346.448 24.3469 346.448 28.7996ZM323.213 26.9443H336.69C336.629 24.8417 336.08 23.2338 334.922 22.1206C333.824 21.0075 332.177 20.4509 330.104 20.4509C327.97 20.4509 326.323 21.0693 325.103 22.2443C323.884 23.4193 323.274 24.9654 323.213 26.9443ZM350.96 46.3009V14.6377H360.84V21.2548C361.328 18.9667 362.425 17.2351 364.072 15.9982C365.596 14.7614 367.487 14.143 369.438 14.143C370.292 14.143 371.207 14.2048 372 14.3903V23.7285C371.024 23.6048 370.048 23.543 369.012 23.543C363.523 23.543 360.84 27.068 360.84 34.118V46.3627L350.96 46.3009Z" fill="black"/>
<path fill-rule="evenodd" clip-rule="evenodd" d="M43.5427 4.99029C40.4936 1.83634 36.5906 0.290283 31.9559 0.290283H12.746V19.1521C17.0759 20.5745 20.0031 24.5942 19.9421 29.2324C19.9421 33.8087 17.0149 37.8903 12.746 39.3127V46.3008H23.1742V33.5613H31.9559C36.6516 33.5613 40.4936 32.0153 43.5427 28.8613C46.5919 25.7074 48.1165 21.7495 48.1165 16.9258C48.1165 12.1021 46.5919 8.14423 43.5427 4.99029ZM35.5539 22.6153C34.2123 24.0995 32.5047 24.8416 30.3703 24.8416H23.1742V8.94818H30.3093C32.4437 8.94818 34.1513 9.69029 35.4929 11.1745C36.8346 12.6587 37.5054 14.5758 37.5054 16.864C37.5664 19.214 36.8955 21.1311 35.5539 22.6153Z" fill="black"/>
<path d="M7.37801 37.0245C11.5859 37.0245 14.94 33.5614 14.94 29.2943C14.94 25.0272 11.5249 21.6259 7.37801 21.6259C3.17014 21.6259 -0.18396 25.089 -0.18396 29.2943C-0.18396 33.5614 3.17014 37.0245 7.37801 37.0245Z" fill="#F35165"/>
</g>
<defs>
<clipPath id="clip0_897_3347">
<rect width="372" height="47" fill="white" transform="translate(0 0.53772)"/>
</clipPath>
</defs>
</svg>
